<svg width="149" height="40" viewBox="0 0 149 40" fill="none" xmlns="http://www.w3.org/2000/svg">
<g clip-path="url(#clip0_939_2257)">
<path d="M8.68254 19.0438C8.68258 18.8204 8.72693 18.5993 8.81304 18.3931C8.89915 18.1869 9.02533 17.9996 9.18433 17.842C9.34333 17.6845 9.53201 17.5598 9.73955 17.4751C9.94709 17.3903 10.1694 17.3472 10.3937 17.3483L13.2307 17.3575C13.683 17.3575 14.1168 17.5364 14.4367 17.8549C14.7565 18.1733 14.9362 18.6053 14.9362 19.0556V29.737C15.2557 29.6427 15.6646 29.5422 16.1146 29.4367C16.4264 29.3636 16.7042 29.1879 16.9031 28.9379C17.1019 28.688 17.2102 28.3785 17.2103 28.0596V14.8111C17.2103 14.3607 17.3899 13.9288 17.7098 13.6102C18.0296 13.2917 18.4634 13.1127 18.9158 13.1127H21.7613C22.2137 13.1127 22.6475 13.2917 22.9674 13.6102C23.2872 13.9288 23.4669 14.3607 23.4669 14.8111V27.1079C23.4669 27.1079 24.1788 26.8211 24.8718 26.5296C25.1293 26.4212 25.3491 26.2396 25.5036 26.0076C25.6582 25.7757 25.7407 25.5035 25.7409 25.2251V10.5656C25.7409 10.1153 25.9206 9.68343 26.2404 9.36497C26.5602 9.04652 26.9939 8.86757 27.4462 8.86748H30.2887C30.7408 8.86792 31.1742 9.04703 31.4937 9.36544C31.8132 9.68386 31.9926 10.1155 31.9926 10.5656V22.6372C34.4571 20.8589 36.9546 18.72 38.9366 16.1483C39.2242 15.775 39.4145 15.3366 39.4905 14.8723C39.5665 14.4079 39.526 13.9321 39.3724 13.4872C38.4549 10.8591 36.9965 8.45061 35.0905 6.4159C33.1845 4.38119 30.8729 2.76505 28.3036 1.67089C25.7343 0.576729 22.9638 0.0286453 20.1696 0.0617149C17.3753 0.0947845 14.6187 0.708277 12.0763 1.86293C9.53378 3.01759 7.2614 4.68799 5.40452 6.76723C3.54764 8.84647 2.14715 11.2888 1.29267 13.9378C0.438194 16.5869 0.148548 19.3844 0.442264 22.1513C0.735981 24.9182 1.60659 27.5936 2.99839 30.0063C3.24087 30.4225 3.59762 30.7612 4.02672 30.9825C4.45582 31.2039 4.93944 31.2987 5.42078 31.2558C5.9585 31.2086 6.62801 31.142 7.42399 31.0491C7.77042 31.0098 8.09026 30.8451 8.32258 30.5862C8.55491 30.3274 8.6835 29.9925 8.68387 29.6453V19.0438" fill="white"/>
<path d="M8.62195 36.1739C11.6182 38.3442 15.1591 39.6469 18.8528 39.9379C22.5465 40.2288 26.2491 39.4968 29.5509 37.8226C32.8527 36.1485 35.6249 33.5976 37.561 30.452C39.497 27.3065 40.5213 23.6891 40.5207 19.9999C40.5207 19.5384 40.4991 19.0841 40.4683 18.6311C33.13 29.5284 19.5803 34.6228 8.62195 36.1739" fill="#F0B90B"/>
<path d="M57.1489 19.8933C58.1096 20.0657 58.9766 20.5752 59.5925 21.3293C60.2027 22.076 60.5278 23.0135 60.5103 23.9759C60.5401 24.6021 60.428 25.227 60.1825 25.8042C59.937 26.3815 59.5642 26.8964 59.0918 27.3109C58.1462 28.1258 56.7754 28.5333 54.9795 28.5333H47.756V11.7754H54.8364C56.5361 11.7754 57.8433 12.1473 58.7581 12.8911C59.6728 13.6348 60.1298 14.6788 60.1289 16.0229C60.1683 16.9475 59.8768 17.8559 59.3064 18.5865C58.7566 19.2527 57.9959 19.7134 57.1489 19.8933ZM51.1174 18.8014H54.1437C54.8303 18.8499 55.5115 18.652 56.0642 18.2436C56.2874 18.0428 56.4623 17.7945 56.5758 17.5171C56.6893 17.2397 56.7385 16.9404 56.7198 16.6414C56.7381 16.3416 56.6899 16.0415 56.5787 15.7623C56.4675 15.4831 56.2959 15.2317 56.0761 15.026C55.647 14.6462 54.9874 14.4563 54.0974 14.4563H51.1174V18.8014ZM54.3119 25.8036C55.0423 25.8515 55.7668 25.646 56.3622 25.2221C56.6051 25.0136 56.7962 24.7518 56.9203 24.4573C57.0444 24.1628 57.0982 23.8436 57.0774 23.5249C57.0961 23.2017 57.0402 22.8786 56.9139 22.5802C56.7877 22.2819 56.5944 22.0164 56.3489 21.804C55.7549 21.3661 55.0244 21.1517 54.2868 21.1988H51.1174V25.8036H54.3119ZM67.4239 15.2172C69.0291 15.2172 70.3164 15.6207 71.2859 16.4278C72.2637 17.2489 72.9077 18.3964 73.0977 19.6559H69.9522C69.8499 19.0664 69.5468 18.53 69.094 18.1368C68.6034 17.7414 67.9842 17.5387 67.3537 17.5671C66.874 17.5374 66.3996 17.6806 66.0173 17.9706C65.8598 18.1047 65.735 18.2726 65.6524 18.4618C65.5698 18.651 65.5315 18.8564 65.5405 19.0625C65.5343 19.2279 65.5653 19.3927 65.6313 19.5446C65.6973 19.6966 65.7966 19.8319 65.922 19.9407C66.2017 20.1764 66.5259 20.3539 66.8755 20.4629C67.257 20.5895 67.8053 20.7399 68.5205 20.9139C69.3515 21.086 70.1683 21.32 70.9641 21.6142C71.5942 21.8605 72.152 22.2604 72.5865 22.7772C73.0664 23.3879 73.3078 24.1511 73.266 24.9254C73.2788 25.4524 73.1654 25.9749 72.9351 26.4496C72.7048 26.9243 72.3642 27.3375 71.9415 27.6551C71.0594 28.3504 69.8714 28.6981 68.3775 28.6981C66.661 28.6981 65.2862 28.3148 64.2532 27.5482C63.7335 27.1544 63.2989 26.6603 62.9753 26.0954C62.6517 25.5306 62.4458 24.9066 62.3698 24.2608H65.5882C65.6161 24.5614 65.7069 24.8529 65.8547 25.1166C66.0025 25.3803 66.2041 25.6102 66.4464 25.7918C67.0104 26.1853 67.6895 26.3815 68.3775 26.3496C68.8517 26.3822 69.3206 26.2336 69.6887 25.9342C69.8379 25.7973 69.9557 25.63 70.0339 25.4435C70.1121 25.2571 70.1488 25.0561 70.1416 24.8542C70.1476 24.6807 70.1156 24.5079 70.0476 24.3481C69.9797 24.1882 69.8775 24.045 69.7482 23.9285C69.4652 23.6793 69.1319 23.4932 68.7708 23.3825C68.3814 23.2559 67.8296 23.1056 67.1153 22.9315C66.3024 22.7594 65.502 22.5334 64.7194 22.255C64.109 22.0267 63.5674 21.6467 63.1459 21.1513C62.6797 20.5575 62.4466 19.815 62.4903 19.0625C62.4765 18.5299 62.5878 18.0014 62.8155 17.5193C63.0431 17.0371 63.3808 16.6146 63.8015 16.2854C64.6748 15.5733 65.8822 15.2172 67.4239 15.2172ZM81.7039 15.2172C83.2409 15.1633 84.7477 15.6508 85.9594 16.5939C87.1115 17.5387 87.8716 18.8746 88.093 20.3443H84.5396C84.4242 19.6954 84.077 19.1099 83.5621 18.6959C83.0083 18.2776 82.3257 18.0636 81.6311 18.0906C81.2098 18.0825 80.7919 18.1665 80.4067 18.3367C80.0216 18.5069 79.6786 18.7592 79.4021 19.0757C78.8061 19.7324 78.5081 20.6937 78.5081 21.9597C78.5081 23.2256 78.8061 24.1869 79.4021 24.8436C79.6786 25.1601 80.0216 25.4124 80.4067 25.5826C80.7919 25.7528 81.2098 25.8368 81.6311 25.8287C82.3257 25.8557 83.0083 25.6417 83.5621 25.2234C84.077 24.8094 84.4242 24.2239 84.5396 23.575H88.0917C87.8702 25.0447 87.1102 26.3807 85.958 27.3254C84.7462 28.2668 83.24 28.7528 81.7039 28.6981C80.5084 28.7207 79.3269 28.4393 78.271 27.8805C77.2799 27.3448 76.4678 26.5321 75.9347 25.5425C75.3562 24.4374 75.0691 23.2041 75.1003 21.9583C75.0701 20.7088 75.3571 19.472 75.9347 18.3623C76.4632 17.3694 77.2765 16.5555 78.271 16.0243C79.3291 15.4725 80.5097 15.195 81.7039 15.2172ZM102.039 23.9535C102.046 24.7846 101.823 25.6014 101.396 26.3153C100.938 27.0615 100.277 27.6625 99.4885 28.048C98.5308 28.5077 97.4758 28.7307 96.4131 28.6981C95.3178 28.7168 94.2304 28.5108 93.2186 28.0929C92.3246 27.7227 91.547 27.1202 90.967 26.3482C90.3967 25.5721 90.0617 24.6496 90.0015 23.6898H93.5775C93.6398 24.335 93.9315 24.9368 94.4 25.3869C94.6513 25.6175 94.9462 25.7961 95.2675 25.9122C95.5888 26.0283 95.93 26.0797 96.2714 26.0634C96.5635 26.0829 96.8566 26.0435 97.1331 25.9477C97.4096 25.8518 97.6638 25.7015 97.8806 25.5056C98.0673 25.3168 98.2133 25.0921 98.3096 24.8452C98.4059 24.5982 98.4506 24.3343 98.4408 24.0695C98.4585 23.597 98.2968 23.1351 97.9879 22.7759C97.67 22.4242 97.2797 22.1449 96.8436 21.957C96.3827 21.7513 95.7469 21.5139 94.9364 21.2449C94.0538 20.9642 93.1933 20.6191 92.3617 20.2124C91.6819 19.8616 91.0972 19.3527 90.6571 18.7289C90.1587 17.9782 89.9125 17.0894 89.9539 16.1904C89.9262 15.5403 90.0533 14.8929 90.3246 14.301C90.596 13.7091 91.004 13.1894 91.5154 12.7842C92.5564 11.9535 93.9351 11.5381 95.6516 11.5381C97.4316 11.5381 98.8501 11.9653 99.907 12.8198C100.426 13.2361 100.854 13.7542 101.163 14.342C101.473 14.9298 101.657 15.5747 101.706 16.2366H98.0819C98.0049 15.6702 97.7363 15.1469 97.3204 14.753C96.8543 14.3462 96.2466 14.1374 95.6277 14.1715C95.0843 14.1461 94.5502 14.3191 94.1258 14.6581C93.9296 14.8356 93.7761 15.0549 93.6768 15.2997C93.5776 15.5444 93.535 15.8083 93.5523 16.0717C93.537 16.5203 93.6949 16.9578 93.9934 17.2941C94.3079 17.6332 94.6894 17.9039 95.1139 18.0893C95.7169 18.3515 96.3337 18.5813 96.9614 18.7777C97.8595 19.0828 98.7391 19.4394 99.5958 19.8458C100.288 20.1927 100.882 20.7068 101.324 21.3412C101.832 22.1146 102.082 23.0277 102.039 23.9509V23.9535ZM110.455 15.2172C111.992 15.1633 113.499 15.6508 114.71 16.5939C115.862 17.5387 116.622 18.8746 116.844 20.3443H113.292C113.176 19.6954 112.829 19.1099 112.314 18.6959C111.76 18.2776 111.078 18.0636 110.383 18.0906C109.962 18.0825 109.544 18.1665 109.159 18.3367C108.774 18.5069 108.431 18.7592 108.154 19.0757C107.558 19.7324 107.26 20.6937 107.26 21.9597C107.26 23.2256 107.558 24.1869 108.154 24.8436C108.431 25.1601 108.774 25.4124 109.159 25.5826C109.544 25.7528 109.962 25.8368 110.383 25.8287C111.078 25.8557 111.76 25.6417 112.314 25.2234C112.829 24.8094 113.176 24.2239 113.292 23.575H116.844C116.622 25.0437 115.862 26.3787 114.71 27.3227C113.498 28.2654 111.992 28.7524 110.455 28.6981C109.259 28.7207 108.078 28.4393 107.022 27.8805C106.031 27.3448 105.219 26.5321 104.686 25.5425C104.107 24.4374 103.82 23.2041 103.851 21.9583C103.821 20.7088 104.108 19.472 104.686 18.3623C105.214 17.3694 106.027 16.5555 107.022 16.0243C108.08 15.4725 109.261 15.195 110.455 15.2172ZM124.401 15.2172C125.412 15.1888 126.408 15.4615 127.262 16.0005C128.041 16.5035 128.635 17.2448 128.955 18.113V15.3834H132.292V28.5333H128.955V25.7799C128.633 26.6502 128.04 27.3949 127.262 27.9043C126.411 28.4502 125.413 28.7269 124.401 28.6981C123.344 28.7131 122.303 28.4336 121.397 27.8911C120.488 27.3313 119.762 26.5185 119.311 25.5531C118.788 24.4274 118.531 23.1971 118.56 21.957C118.531 20.7169 118.788 19.4867 119.311 18.361C119.762 17.3955 120.488 16.5827 121.397 16.0229C122.304 15.4809 123.344 15.2019 124.401 15.2172ZM125.45 18.1368C124.98 18.1172 124.511 18.1983 124.075 18.3746C123.639 18.5509 123.246 18.8183 122.923 19.1588C122.287 19.8401 121.969 20.7742 121.969 21.961C121.969 23.1478 122.287 24.0775 122.923 24.75C123.248 25.0871 123.642 25.3513 124.077 25.5253C124.513 25.6992 124.981 25.7788 125.45 25.7588C125.919 25.7731 126.386 25.6885 126.819 25.5106C127.253 25.3326 127.644 25.0653 127.967 24.7263C128.651 23.9713 129.007 22.9768 128.956 21.961C129.01 20.9376 128.654 19.9347 127.967 19.172C127.644 18.8324 127.253 18.5646 126.82 18.3862C126.386 18.2078 125.919 18.1228 125.45 18.1368ZM143.211 15.1935C143.891 15.1631 144.571 15.2812 145.201 15.5395C145.831 15.7978 146.396 16.1901 146.858 16.6889C147.763 17.6858 148.216 19.0862 148.216 20.8902V28.5333H144.878V21.27C144.878 20.2256 144.608 19.4146 144.068 18.837C143.781 18.5434 143.435 18.3141 143.053 18.1647C142.67 18.0153 142.26 17.9491 141.849 17.9706C141.423 17.952 140.998 18.0251 140.603 18.1849C140.209 18.3446 139.853 18.5873 139.561 18.8963C138.988 19.5135 138.702 20.3996 138.702 21.5548V28.5333H135.344V15.3834H138.705V18.0168C139.035 17.1537 139.643 16.4236 140.433 15.9399C141.269 15.4326 142.233 15.1736 143.212 15.1935H143.211Z" fill="white"/>
</g>
<defs>
<clipPath id="clip0_939_2257">
<rect width="148.077" height="40" fill="white" transform="translate(0.331299)"/>
</clipPath>
</defs>
</svg>
