<svg width="152" height="40" viewBox="0 0 152 40" fill="none" xmlns="http://www.w3.org/2000/svg">
<g clip-path="url(#clip0_939_2246)">
<path d="M62.6234 15.7048C62.2201 14.0915 61.1865 12.9319 59.1447 12.9319C56.1449 12.9319 54.9097 15.5787 54.9097 18.2508C54.9097 20.9229 56.1701 23.5698 59.1447 23.5698C61.3126 23.5698 62.4974 21.9564 62.699 19.9146H65.0938C64.8922 23.2673 62.5226 25.5612 59.1447 25.5612C54.9601 25.5612 52.4645 22.2337 52.4645 18.2508C52.4645 14.2679 54.9601 10.9404 59.1447 10.9404C62.2957 10.9656 64.7661 12.705 65.0686 15.7048H62.6234ZM66.5559 20.1667C66.5559 17.066 68.4213 14.8477 71.648 14.8477C74.8746 14.8477 76.74 17.066 76.74 20.1667C76.74 23.2673 74.8746 25.5108 71.648 25.5108C68.4213 25.5108 66.5559 23.2673 66.5559 20.1667ZM74.5217 20.1667C74.5217 18.4273 73.6394 16.6123 71.648 16.6123C69.6565 16.6123 68.7742 18.4273 68.7742 20.1667C68.7742 21.906 69.6565 23.7462 71.648 23.7462C73.6394 23.7462 74.5217 21.9312 74.5217 20.1667ZM78.6559 11.2681H80.8742V13.3856H78.6559V11.2681ZM78.6559 15.125H80.8742V25.2335H78.6559V15.125ZM83.3194 15.125H85.4369V16.6123L85.4873 16.6627C86.1427 15.5535 87.3275 14.8477 88.6383 14.8729C90.8314 14.8729 92.2179 16.0577 92.2179 18.3012V25.2335H89.9996V18.881C89.9492 17.2929 89.3442 16.6123 88.0333 16.6123C86.546 16.6123 85.5881 17.7719 85.5881 19.2592V25.2335H83.3698V15.125H83.3194ZM107.04 25.2335H105.477L105.099 23.595C103.788 25.0823 102.604 25.5612 100.89 25.5612C96.705 25.5612 94.2094 22.2337 94.2094 18.2508C94.2094 14.2679 96.705 10.9404 100.89 10.9404C103.94 10.9404 106.511 12.5538 106.864 15.7048H104.469C104.242 13.8646 102.629 12.9319 100.864 12.9319C97.8646 12.9319 96.6293 15.5787 96.6293 18.2508C96.6293 20.9229 97.8898 23.5698 100.864 23.5698C103.36 23.6202 104.746 22.1077 104.772 19.7381H101.066V17.8727H107.015L107.04 25.2335ZM111.124 20.7464C111.124 22.3346 111.981 23.7462 113.847 23.7462C115.132 23.7462 115.914 23.1916 116.317 22.0573H118.434C117.956 24.2756 116.065 25.5108 113.847 25.5108C110.67 25.5108 108.906 23.2925 108.906 20.1919C108.906 17.3181 110.796 14.8477 113.796 14.8477C116.972 14.8477 118.939 17.7215 118.561 20.7464H111.124V20.7464ZM116.317 19.2844C116.241 17.8727 115.283 16.6123 113.771 16.6123C112.233 16.6123 111.175 17.7719 111.099 19.2844H116.317ZM127.081 18.5029C126.904 17.2677 125.997 16.6123 124.762 16.6123C123.602 16.6123 121.989 17.2173 121.989 20.2927C121.989 21.9816 122.72 23.7462 124.661 23.7462C125.947 23.7462 126.854 22.8891 127.056 21.4271H129.274C128.871 24.0487 127.257 25.4856 124.636 25.4856C121.459 25.4856 119.72 23.2421 119.72 20.2675C119.72 17.2173 121.384 14.8225 124.711 14.8225C127.056 14.8225 129.047 16.0073 129.274 18.4777H127.081V18.5029ZM131.19 11.2681H133.408V19.2087L137.442 15.125H140.189L136.307 18.8306L140.542 25.2335H137.82L134.719 20.3179L133.383 21.6035V25.2335H131.165V11.2681H131.19ZM141.147 20.1667C141.147 17.066 143.013 14.8477 146.239 14.8477C149.491 14.8477 151.331 17.066 151.331 20.1667C151.331 23.2673 149.466 25.5108 146.239 25.5108C143.013 25.5108 141.147 23.2673 141.147 20.1667ZM149.138 20.1667C149.138 18.4273 148.256 16.6123 146.264 16.6123C144.273 16.6123 143.391 18.4273 143.391 20.1667C143.391 21.906 144.273 23.7462 146.264 23.7462C148.256 23.7462 149.138 21.9312 149.138 20.1667Z" fill="white"/>
<path d="M40.0872 19.9146C40.1124 28.0064 35.2977 35.3168 27.836 38.4426C20.3744 41.5685 11.7784 39.9047 6.03088 34.2077C0.283394 28.5106 -1.45598 19.9146 1.59422 12.4277C4.64442 4.94088 11.9296 0.0504699 19.9963 5.34264e-05C31.0627 -0.0251548 40.0368 8.87336 40.0872 19.9146Z" fill="#8DC63F"/>
<path d="M38.5998 19.9146C38.625 27.4015 34.1632 34.1573 27.2561 37.0563C20.349 39.9552 12.4084 38.3923 7.08949 33.149C1.77055 27.8805 0.157218 19.9399 2.98054 13.0328C5.80387 6.10052 12.5345 1.58824 19.9961 1.53783C30.2307 1.48741 38.5494 9.7053 38.5998 19.9146Z" fill="#F9E988"/>
<path d="M20.45 2.72254C21.6347 2.52087 22.8195 2.52087 24.0043 2.72254C25.1891 2.899 26.3487 3.30233 27.4074 3.85691C28.4662 4.4367 29.3737 5.21816 30.2812 5.9492C31.1887 6.68024 32.0962 7.43649 32.9532 8.26836C33.8355 9.07502 34.5918 10.0077 35.222 11.0161C35.8774 12.0244 36.4068 13.1083 36.8101 14.2175C37.5916 16.4862 37.8436 18.9314 37.4655 21.2506H37.3395C36.9614 18.9314 36.432 16.7383 35.6001 14.646C35.222 13.5873 34.743 12.5538 34.2389 11.5706C33.6843 10.5875 33.1045 9.60439 32.4491 8.69689C31.7937 7.76419 30.9618 6.93232 30.0291 6.2517C29.0964 5.57108 28.0124 5.14253 26.9789 4.7392C25.9454 4.33587 24.8866 3.90733 23.8026 3.57962C22.7187 3.27712 21.6095 3.02504 20.45 2.79816V2.72254Z" fill="white"/>
<path d="M29.4745 13.3856C28.1385 13.0074 26.752 12.4529 25.3404 11.8983C25.2647 11.5454 24.937 11.1168 24.3068 10.5622C23.3993 9.75558 21.66 9.78079 20.1727 10.1337C18.5341 9.75558 16.8956 9.60433 15.3327 9.98245C2.55211 13.5116 9.78688 22.0824 5.09814 30.7288C5.75356 32.1405 12.9631 40.4088 23.3741 38.1905C23.3741 38.1905 19.8198 29.6449 27.8612 25.536C34.3901 22.2085 39.0789 16.0072 29.4745 13.3856Z" fill="#8BC53F"/>
<path d="M20.1726 10.1337C21.1053 10.2093 24.4832 11.2933 25.3403 11.8983C24.6093 9.80597 22.1893 9.52868 20.1726 10.1337Z" fill="#009345"/>
<path d="M31.0624 19.0073C31.0624 19.6879 30.2306 20.0408 29.7516 19.5619C29.2727 19.0829 29.6004 18.251 30.281 18.2258C30.7095 18.251 31.0624 18.5787 31.0624 19.0073ZM21.0548 15.4529C21.0548 16.8898 20.1725 18.2006 18.8364 18.7552C17.5004 19.3098 15.9627 19.0073 14.9292 17.9738C13.8956 16.9402 13.5931 15.4025 14.1477 14.0665C14.7023 12.7304 16.0131 11.8481 17.45 11.8481C18.4079 11.8481 19.3154 12.2263 19.9708 12.8817C20.6766 13.5875 21.0548 14.495 21.0548 15.4529Z" fill="white"/>
<path d="M19.9963 15.4782C19.9963 16.4865 19.3913 17.4192 18.4334 17.7973C17.5006 18.1754 16.4167 17.9738 15.6857 17.2427C14.9546 16.5117 14.753 15.453 15.1311 14.495C15.5092 13.5623 16.4419 12.9321 17.4502 12.9321C18.8619 12.9573 19.9963 14.0917 19.9963 15.4782Z" fill="#58595B"/>
<path d="M33.9616 20.5954C31.0627 22.6373 27.7604 24.175 23.0968 24.175C20.9037 24.175 20.4752 21.8558 19.0131 22.9902C18.2569 23.57 15.6352 24.8808 13.5429 24.8052C11.4506 24.7043 8.07272 23.4691 7.14002 19.0325C6.76189 23.4943 6.58544 26.7714 4.89648 30.5274C8.22397 35.8716 16.1646 39.9805 23.3741 38.216C22.5927 32.7962 27.3318 27.5024 29.9787 24.8052C31.0122 23.7464 32.9533 22.0827 33.9616 20.5954Z" fill="#8BC53F"/>
<path d="M33.8355 20.7212C32.928 21.5531 31.8693 22.1581 30.7853 22.6874C29.6762 23.2168 28.5418 23.6201 27.357 23.9478C26.1722 24.2503 24.937 24.4772 23.7018 24.3764C22.4414 24.2756 21.181 23.847 20.3491 22.9143L20.3995 22.8639C21.4079 23.5193 22.5927 23.7462 23.7522 23.7966C24.937 23.8218 26.1218 23.7462 27.2814 23.5193C28.441 23.2672 29.6006 22.9143 30.7097 22.4606C31.8189 22.0068 32.9028 21.4774 33.8607 20.7212H33.8355Z" fill="#58595B"/>
</g>
<defs>
<clipPath id="clip0_939_2246">
<rect width="151.22" height="40" fill="white" transform="translate(0.111084)"/>
</clipPath>
</defs>
</svg>
