<svg width="234" height="40" viewBox="0 0 234 40" fill="none" xmlns="http://www.w3.org/2000/svg">
<g clip-path="url(#clip0_939_2242)">
<path fill-rule="evenodd" clip-rule="evenodd" d="M66.8482 13.1679C67.3211 13.4557 67.7306 14.0957 67.7306 14.6723C67.7306 15.6001 66.9427 16.3679 66.0602 16.3679C65.8399 16.3679 65.6195 16.3045 65.4303 16.2401C64.3898 15.4723 63.0666 14.9601 61.6799 14.9601C58.4035 14.9601 56.1343 17.6479 56.1343 20.9757C56.1343 24.3045 58.4035 26.9601 61.6799 26.9601C63.3182 26.9601 64.7682 26.2879 65.8711 25.2645C66.156 25.0596 66.4973 24.9478 66.8482 24.9445C67.7306 24.9445 68.424 25.6479 68.424 26.5445C68.424 27.1201 68.0768 27.6323 67.6361 27.9201C66.0602 29.2645 63.9179 30.1601 61.7121 30.1601C56.6706 30.1601 52.5731 26.0001 52.5731 20.8801C52.5731 15.7601 56.6697 11.6001 61.7121 11.6001C63.6029 11.6001 65.3981 12.1757 66.8482 13.1679ZM76.0671 17.0401C79.5015 17.0401 82.4006 19.9523 82.4006 23.5357C82.4006 27.1201 79.5015 30.1601 76.0671 30.1601C72.4747 30.1601 69.481 27.1201 69.481 23.5357C69.481 19.9523 72.4747 17.0401 76.0671 17.0401ZM76.0349 26.9601C77.5483 26.9601 78.8394 25.5201 78.8394 23.5679C78.8394 21.6167 77.5483 20.4001 76.0349 20.4001C74.3967 20.4001 73.0412 21.5845 73.0412 23.5679C73.0412 25.5201 74.3967 26.9601 76.0349 26.9601ZM84.5605 28.1757V19.0245C84.5605 18.0323 85.3485 17.2001 86.3255 17.2001C87.3026 17.2001 88.1217 18.0323 88.1217 19.0245V28.1757C88.1217 29.1679 87.3026 30.0001 86.3255 30.0001C85.3485 30.0001 84.5605 29.1679 84.5605 28.1757ZM84.2778 13.7445C84.2778 12.5601 85.1905 11.6001 86.3255 11.6001C87.4908 11.6001 88.4367 12.5601 88.4367 13.7445C88.4367 14.8957 87.4908 15.8245 86.3255 15.8245C85.1905 15.8245 84.2778 14.8957 84.2778 13.7445ZM94.9457 23.2157V28.1757C94.9457 29.1679 94.1266 30.0001 93.1486 30.0001C92.1725 30.0001 91.3836 29.1679 91.3836 28.1757V18.6079C91.3836 17.8401 92.0145 17.2001 92.7712 17.2001C93.5269 17.2001 94.1266 17.8401 94.1266 18.6079C95.5757 17.2645 96.8356 17.0401 98.033 17.0401C101.594 17.0401 103.17 19.7279 103.17 22.7679V28.1757C103.17 29.1679 102.351 30.0001 101.374 30.0001C100.397 30.0001 99.6089 29.1679 99.6089 28.1757V23.2157C99.6089 21.6479 99.4197 20.3357 97.1827 20.3357C95.6069 20.3357 94.9448 21.6479 94.9448 23.2157H94.9457ZM114.752 25.1045C114.342 25.1045 114.059 24.9123 113.838 24.6557L109.678 20.1445V28.1757C109.678 29.1679 108.859 30.0001 107.882 30.0001C106.905 30.0001 106.117 29.1679 106.117 28.1757V12.2733C106.168 12.1393 106.259 12.0243 106.378 11.944C106.496 11.8637 106.637 11.8219 106.78 11.8245C107.094 11.8245 107.346 12.0811 107.536 12.2733L114.153 19.7289C114.342 19.9533 114.594 20.0811 114.721 20.0811C114.846 20.0811 115.098 19.9533 115.287 19.7299L121.905 12.2733C122.095 12.0811 122.346 11.8245 122.661 11.8245C122.976 11.8245 123.229 12.0167 123.323 12.2733V28.1757C123.323 29.1679 122.535 30.0001 121.558 30.0001C120.581 30.0001 119.762 29.1679 119.762 28.1757V20.1445L115.603 24.6557C115.382 24.9123 115.098 25.1045 114.752 25.1045ZM131.88 26.9601C133.487 26.9601 134.842 25.5201 134.842 23.5679C134.842 21.6167 133.456 20.3357 131.88 20.3357C130.304 20.3357 129.043 21.6479 129.043 23.5679C129.043 25.4557 130.304 26.9601 131.88 26.9601ZM135.662 28.5923L135.597 28.1757C134.905 29.5513 132.698 30.1601 131.28 30.1601C127.94 30.1601 125.482 27.1201 125.482 23.5357C125.482 19.9523 128.003 17.0401 131.47 17.0401C132.068 17.0401 134.054 17.2001 135.597 19.0245L135.661 18.6079C135.661 17.8401 136.259 17.2001 137.016 17.2001C137.772 17.2001 138.402 17.8401 138.402 18.6079V28.5923C138.402 29.3601 137.772 30.0001 137.015 30.0001C136.259 30.0001 135.66 29.3601 135.66 28.5923H135.662ZM148.283 20.3357H147.905C145.668 20.4645 145.227 21.7445 145.227 23.2157V28.1757C145.227 29.1679 144.408 30.0001 143.431 30.0001C142.453 30.0001 141.666 29.1679 141.666 28.1757V18.6079C141.666 17.8401 142.295 17.2001 143.052 17.2001C143.809 17.2001 144.408 17.8401 144.408 18.6079C145.731 17.3601 146.803 17.1045 147.905 17.0401H148.252C149.103 17.0401 149.89 17.7757 149.89 18.7045C149.89 19.5679 149.134 20.3357 148.283 20.3357ZM162.008 27.3445C162.166 27.6001 162.26 27.8879 162.26 28.2079C162.26 29.1357 161.409 30.0001 160.495 30.0001C159.866 30.0001 159.329 29.5201 158.92 29.0079L154.824 24.2401V28.1757C154.824 29.1679 154.004 30.0001 153.027 30.0001C152.05 30.0001 151.262 29.1679 151.262 28.1757V13.6489C151.262 12.6557 152.05 11.8245 153.027 11.8245C154.004 11.8245 154.823 12.6557 154.823 13.6489V22.7045L158.92 18.1601C159.329 17.6801 159.833 17.2001 160.464 17.2001C161.347 17.2001 162.166 18.0323 162.166 18.9601C162.166 19.2479 162.102 19.5357 161.945 19.7923L158.699 23.3435L162.008 27.3435V27.3445ZM168.99 20.4001C168.013 20.4001 166.437 20.9123 166.437 22.4157H171.573C171.573 20.8801 169.935 20.4001 168.989 20.4001H168.99ZM173.653 24.6879H166.437C166.437 26.8323 168.485 27.1523 169.398 27.1523C170.062 27.1523 171.006 27.0245 171.731 26.7035C171.951 26.5445 172.33 26.4157 172.645 26.4157C173.433 26.4157 174.094 27.0889 174.094 27.8889C174.094 28.4323 173.748 28.9123 173.307 29.1679C172.204 29.9679 170.785 30.1601 169.431 30.1601C165.838 30.1601 162.845 28.2089 162.845 23.6957C162.845 20.1445 164.672 17.0401 168.926 17.0401C172.361 17.0401 174.976 19.2801 175.04 23.2801C175.04 24.0479 174.41 24.6879 173.653 24.6879ZM183.565 30.1601H182.588C179.877 30.1601 178.302 28.9757 178.302 24.7201V20.3357H177.389C176.537 20.3357 175.782 19.5679 175.782 18.7045C175.782 17.7757 176.537 17.0401 177.389 17.0401H178.302V13.6479C178.302 12.6557 179.09 11.8235 180.067 11.8235C181.044 11.8235 181.864 12.6557 181.864 13.6479V17.0401H183.344C184.195 17.0401 184.952 17.7757 184.952 18.7045C184.952 19.5679 184.195 20.3357 183.344 20.3357H181.864V24.0157C181.864 26.4479 181.989 26.9601 183.061 26.9601H183.565C184.416 26.9601 185.14 27.6645 185.14 28.5601C185.14 29.4245 184.416 30.1601 183.565 30.1601ZM200.819 13.1679C201.291 13.4557 201.702 14.0957 201.702 14.6723C201.702 15.6001 200.914 16.3679 200.031 16.3679C199.811 16.3679 199.59 16.3045 199.401 16.2401C198.361 15.4723 197.038 14.9601 195.651 14.9601C192.375 14.9601 190.105 17.6479 190.105 20.9757C190.105 24.3045 192.374 26.9601 195.651 26.9601C197.289 26.9601 198.739 26.2879 199.842 25.2645C200.127 25.0596 200.468 24.9478 200.819 24.9445C201.702 24.9445 202.394 25.6479 202.394 26.5445C202.394 27.1201 202.048 27.6323 201.607 27.9201C200.031 29.2645 197.888 30.1601 195.682 30.1601C190.641 30.1601 186.544 26.0001 186.544 20.8801C186.544 15.7601 190.64 11.6001 195.682 11.6001C197.574 11.6001 199.369 12.1757 200.819 13.1679ZM209.849 26.9601C211.456 26.9601 212.811 25.5201 212.811 23.5679C212.811 21.6167 211.424 20.3357 209.848 20.3357C208.273 20.3357 207.012 21.6479 207.012 23.5679C207.012 25.4557 208.273 26.9601 209.848 26.9601H209.849ZM213.63 28.5923L213.567 28.1757C212.874 29.5513 210.668 30.1601 209.249 30.1601C205.91 30.1601 203.451 27.1201 203.451 23.5357C203.451 19.9523 205.973 17.0401 209.439 17.0401C210.037 17.0401 212.023 17.2001 213.567 19.0245L213.63 18.6079C213.63 17.8401 214.228 17.2001 214.985 17.2001C215.741 17.2001 216.372 17.8401 216.372 18.6079V28.5923C216.372 29.3601 215.741 30.0001 214.985 30.0001C214.228 30.0001 213.63 29.3601 213.63 28.5923ZM226.157 26.9601C227.733 26.9601 228.993 25.4557 228.993 23.5679C228.993 21.6479 227.733 20.3357 226.157 20.3357C224.581 20.3357 223.195 21.6157 223.195 23.5679C223.195 25.5201 224.55 26.9601 226.157 26.9601ZM223.195 29.1045V33.6479C223.195 34.6401 222.376 35.4723 221.399 35.4723C220.423 35.4723 219.634 34.6401 219.634 33.6479V18.6079C219.634 17.8401 220.265 17.2001 221.021 17.2001C221.777 17.2001 222.377 17.8401 222.377 18.7357C223.699 17.3601 225.338 17.0401 226.567 17.0401C230.033 17.0401 232.554 19.9523 232.554 23.5357C232.554 27.1201 230.097 30.1601 226.756 30.1601C225.717 30.1601 224.172 29.8401 223.195 29.1045Z" fill="white"/>
<path fill-rule="evenodd" clip-rule="evenodd" d="M34.304 23.9024C33.6067 24.3434 32.7857 24.398 32.1616 24.0459C31.3688 23.598 30.9329 22.5493 30.9329 21.0907V16.7268C30.9329 14.6195 30.1001 13.12 28.7076 12.7151C26.3478 12.0273 24.5731 14.9161 23.9061 16.001L19.7442 22.7522V14.5005C19.6974 12.602 19.0811 11.4663 17.9109 11.1239C17.1367 10.8976 15.9782 10.9883 14.8529 12.7112L5.52862 27.6907C4.28032 25.3198 3.62959 22.6798 3.63295 20C3.63295 10.9766 10.8607 3.6361 19.7442 3.6361C28.6277 3.6361 35.8544 10.9766 35.8544 20C35.8544 20.0156 35.8583 20.0293 35.8593 20.0439C35.8593 20.0595 35.8564 20.0732 35.8573 20.0888C35.9412 21.8361 35.3756 23.2263 34.304 23.9034V23.9024ZM39.4341 20.001V20V19.9551L39.4332 19.9102C39.3834 8.92098 30.5711 0 19.7432 0C8.88699 0 0.0532227 8.97171 0.0532227 20C0.0532227 31.0273 8.88699 40 19.7442 40C24.7262 40 29.4809 38.1054 33.1309 34.6663C33.8564 33.9834 33.8993 32.8332 33.2264 32.0976C33.0681 31.9228 32.8764 31.7815 32.6628 31.6818C32.4491 31.5821 32.2177 31.5261 31.9822 31.517C31.7466 31.5079 31.5116 31.546 31.2909 31.6289C31.0702 31.7118 30.8683 31.838 30.6969 32C27.7384 34.8029 23.8186 36.3647 19.7442 36.3639C14.9875 36.3639 10.7076 34.2576 7.75583 30.9171L16.1644 17.4088V23.6361C16.1644 26.6273 17.3239 27.5941 18.2961 27.8771C19.2693 28.16 20.7564 27.9668 22.3176 25.4302L26.9426 17.9288C27.0909 17.6868 27.2274 17.478 27.3522 17.2976V21.0907C27.3522 23.8868 28.4717 26.1229 30.4229 27.2244C32.1821 28.2176 34.3937 28.1278 36.1957 26.9902C38.38 25.6098 39.557 23.0663 39.4341 20.001Z" fill="#4260F2"/>
</g>
<defs>
<clipPath id="clip0_939_2242">
<rect width="233.058" height="40" fill="white" transform="translate(0.0532227)"/>
</clipPath>
</defs>
</svg>
