<svg width="32" height="32" viewBox="0 0 32 32" fill="none" xmlns="http://www.w3.org/2000/svg">
<path d="M13.4667 0.666667L4.00008 5.86667C3.20008 6.4 2.66675 7.2 2.66675 8.13333V17.3333C2.66675 23.7333 10.4001 29.3333 13.4667 31.2C14.2667 31.7333 15.0667 32 16.0001 32C16.9334 32 17.7334 31.7333 18.5334 31.2C21.6001 29.3333 29.3334 23.7333 29.3334 17.3333V8.26667C29.3334 7.33333 28.8001 6.4 28.0001 6L18.5334 0.8C17.7334 0.266667 16.9334 0 16.0001 0C15.0667 0 14.2667 0.266667 13.4667 0.666667Z" fill="#EDFFBF"/>
<path d="M15.9999 29.3334C15.5999 29.3334 15.1999 29.2001 14.9333 29.0667C10.2666 26.0001 5.33325 21.4667 5.33325 17.3334V8.26675L14.7999 3.06675C15.1999 2.80008 15.5999 2.66675 15.9999 2.66675C16.3999 2.66675 16.7999 2.80008 17.1999 2.93341L26.6666 8.26675V17.3334C26.6666 21.4667 21.7333 26.0001 17.0666 29.0667C16.7999 29.2001 16.3999 29.3334 15.9999 29.3334Z" fill="#8CAF33"/>
<path d="M15.9999 2.66675V29.3334C15.5999 29.3334 15.1999 29.2001 14.9333 29.0667C10.2666 26.0001 5.33325 21.4667 5.33325 17.3334V8.26675L14.7999 2.93341C15.1999 2.80008 15.5999 2.66675 15.9999 2.66675Z" fill="#9FC73C"/>
<path d="M12.9334 14.2666L15.3334 16.6666L20.4 11.6C20.9334 11.0666 21.7334 11.0666 22.2667 11.6L23.0667 12.4C23.6 12.9333 23.6 13.7333 23.0667 14.2666L16.2667 21.0666C15.7334 21.6 14.9334 21.6 14.4 21.0666L10.2667 16.9333C9.73337 16.4 9.73337 15.6 10.2667 15.0666L11.0667 14.2666C11.6 13.7333 12.4 13.7333 12.9334 14.2666Z" fill="white"/>
</svg>
