<svg width="32" height="32" viewBox="0 0 32 32" fill="none" xmlns="http://www.w3.org/2000/svg">
<path d="M29.3333 29.3333H2.66667C1.2 29.3333 0 28.1333 0 26.6667V2.66667C0 1.2 1.2 0 2.66667 0H29.3333C30.8 0 32 1.2 32 2.66667V26.6667C32 28.1333 30.8 29.3333 29.3333 29.3333Z" fill="#73758D"/>
<path d="M26.6666 26.6667H7.99992C6.53325 26.6667 5.33325 25.4667 5.33325 24.0001V5.33341C5.33325 3.86675 6.53325 2.66675 7.99992 2.66675H26.6666C28.1332 2.66675 29.3332 3.86675 29.3332 5.33341V24.0001C29.3332 25.4667 28.1332 26.6667 26.6666 26.6667Z" fill="#8D8FA8"/>
<path d="M4.00008 9.33325H5.33342V5.33325H4.00008C3.26675 5.33325 2.66675 5.93325 2.66675 6.66658V7.99992C2.66675 8.73325 3.26675 9.33325 4.00008 9.33325Z" fill="#A8ABC8"/>
<path d="M4.00008 24H5.33342V20H4.00008C3.26675 20 2.66675 20.6 2.66675 21.3333V22.6667C2.66675 23.4 3.26675 24 4.00008 24Z" fill="#A8ABC8"/>
<path d="M25.3333 8.66675C26.4378 8.66675 27.3333 7.77132 27.3333 6.66675C27.3333 5.56218 26.4378 4.66675 25.3333 4.66675C24.2287 4.66675 23.3333 5.56218 23.3333 6.66675C23.3333 7.77132 24.2287 8.66675 25.3333 8.66675Z" fill="#FFB85F"/>
<path d="M18.6667 7.33325H16L16.6667 14.6666H18L18.6667 7.33325Z" fill="#A8ABC8"/>
<path d="M10.3333 17.2L11.6666 19.4667L17.6666 15.2667L16.9999 14.0667L10.3333 17.2Z" fill="#A8ABC8"/>
<path d="M23 19.4667L24.3333 17.2L17.6667 14.0667L17 15.2667L23 19.4667Z" fill="#A8ABC8"/>
<path d="M17.3333 6.66675C12.9333 6.66675 9.33325 10.2667 9.33325 14.6667C9.33325 19.0667 12.9333 22.6667 17.3333 22.6667C21.7333 22.6667 25.3333 19.0667 25.3333 14.6667C25.3333 10.2667 21.7333 6.66675 17.3333 6.66675ZM17.3333 20.6667C13.9999 20.6667 11.3333 18.0001 11.3333 14.6667C11.3333 11.3334 13.9999 8.66675 17.3333 8.66675C20.6666 8.66675 23.3333 11.3334 23.3333 14.6667C23.3333 18.0001 20.6666 20.6667 17.3333 20.6667Z" fill="#BEC0D6"/>
<path d="M17.3333 16.6667C18.4378 16.6667 19.3333 15.7713 19.3333 14.6667C19.3333 13.5622 18.4378 12.6667 17.3333 12.6667C16.2287 12.6667 15.3333 13.5622 15.3333 14.6667C15.3333 15.7713 16.2287 16.6667 17.3333 16.6667Z" fill="#BEC0D6"/>
<path d="M7.59992 31.9999H3.99992C3.59992 31.9999 3.33325 31.7332 3.33325 31.3333V29.3333H9.33325L8.19992 31.5999C8.06659 31.8666 7.86659 31.9999 7.59992 31.9999Z" fill="#585B77"/>
<path d="M24.4001 31.9999H28.0001C28.4001 31.9999 28.6667 31.7332 28.6667 31.3333V29.3333H22.6667L23.8001 31.5999C23.9334 31.8666 24.1334 31.9999 24.4001 31.9999Z" fill="#585B77"/>
</svg>
