<svg width="32" height="32" viewBox="0 0 32 32" fill="none" xmlns="http://www.w3.org/2000/svg">
<path d="M16.0001 18.6667H2.66675V1.33333C2.66675 0.6 3.26675 0 4.00008 0H14.6667C15.4001 0 16.0001 0.6 16.0001 1.33333V18.6667Z" fill="#8CAF33"/>
<path d="M18.1334 22.7999L7.66675 14.5333L18.4001 0.933252C18.8667 0.333252 19.6667 0.266585 20.2667 0.733252L28.6667 7.33325C29.2667 7.79992 29.3334 8.59992 28.8667 9.19992L18.1334 22.7999Z" fill="#9FC73C"/>
<path d="M28 10.6667H2.66667C1.2 10.6667 0 11.8667 0 13.3334V29.3334C0 30.8001 1.2 32.0001 2.66667 32.0001H28C29.4667 32.0001 30.6667 30.8001 30.6667 29.3334V13.3334C30.6667 11.8667 29.4667 10.6667 28 10.6667Z" fill="#A65D30"/>
<path d="M4 30.0002H2.66667C2.26667 30.0002 2 29.7335 2 29.3335V28.0002C2 27.6002 2.26667 27.3335 2.66667 27.3335C3.06667 27.3335 3.33333 27.6002 3.33333 28.0002V28.6668H4C4.4 28.6668 4.66667 28.9335 4.66667 29.3335C4.66667 29.7335 4.4 30.0002 4 30.0002Z" fill="#97542B"/>
<path d="M2.66667 26.0001C2.26667 26.0001 2 25.7334 2 25.3334V22.6667C2 22.2667 2.26667 22.0001 2.66667 22.0001C3.06667 22.0001 3.33333 22.2667 3.33333 22.6667V25.3334C3.33333 25.7334 3.06667 26.0001 2.66667 26.0001ZM2.66667 20.6667C2.26667 20.6667 2 20.4001 2 20.0001V17.3334C2 16.9334 2.26667 16.6667 2.66667 16.6667C3.06667 16.6667 3.33333 16.9334 3.33333 17.3334V20.0001C3.33333 20.4001 3.06667 20.6667 2.66667 20.6667Z" fill="#97542B"/>
<path d="M2.66667 15.3334C2.26667 15.3334 2 15.0667 2 14.6667V13.3334C2 12.9334 2.26667 12.6667 2.66667 12.6667H4C4.4 12.6667 4.66667 12.9334 4.66667 13.3334C4.66667 13.7334 4.4 14.0001 4 14.0001H3.33333V14.6667C3.33333 15.0667 3.06667 15.3334 2.66667 15.3334Z" fill="#97542B"/>
<path d="M24.1334 14.0001H21.6C21.2 14.0001 20.9334 13.7334 20.9334 13.3334C20.9334 12.9334 21.2 12.6667 21.6 12.6667H24.1334C24.5334 12.6667 24.8 12.9334 24.8 13.3334C24.8 13.7334 24.5334 14.0001 24.1334 14.0001ZM19.1334 14.0001H16.6C16.2 14.0001 15.9334 13.7334 15.9334 13.3334C15.9334 12.9334 16.2 12.6667 16.6 12.6667H19.1334C19.5334 12.6667 19.8 12.9334 19.8 13.3334C19.8 13.7334 19.4667 14.0001 19.1334 14.0001ZM14.0667 14.0001H11.5334C11.1334 14.0001 10.8667 13.7334 10.8667 13.3334C10.8667 12.9334 11.1334 12.6667 11.5334 12.6667H14.0667C14.4667 12.6667 14.7334 12.9334 14.7334 13.3334C14.7334 13.7334 14.4667 14.0001 14.0667 14.0001ZM9.0667 14.0001H6.53337C6.13337 14.0001 5.8667 13.7334 5.8667 13.3334C5.8667 12.9334 6.13337 12.6667 6.53337 12.6667H9.0667C9.4667 12.6667 9.73337 12.9334 9.73337 13.3334C9.73337 13.7334 9.40003 14.0001 9.0667 14.0001Z" fill="#97542B"/>
<path d="M28 15.3334C27.6 15.3334 27.3333 15.0667 27.3333 14.6667V14.0001H26.6667C26.2667 14.0001 26 13.7334 26 13.3334C26 12.9334 26.2667 12.6667 26.6667 12.6667H28C28.4 12.6667 28.6667 12.9334 28.6667 13.3334V14.6667C28.6667 15.0667 28.4 15.3334 28 15.3334Z" fill="#97542B"/>
<path d="M27.9999 26.0001C27.5999 26.0001 27.3333 25.7334 27.3333 25.3334V22.6667C27.3333 22.2667 27.5999 22.0001 27.9999 22.0001C28.3999 22.0001 28.6666 22.2667 28.6666 22.6667V25.3334C28.6666 25.7334 28.3999 26.0001 27.9999 26.0001ZM27.9999 20.6667C27.5999 20.6667 27.3333 20.4001 27.3333 20.0001V17.3334C27.3333 16.9334 27.5999 16.6667 27.9999 16.6667C28.3999 16.6667 28.6666 16.9334 28.6666 17.3334V20.0001C28.6666 20.4001 28.3999 20.6667 27.9999 20.6667Z" fill="#97542B"/>
<path d="M28 30.0002H26.6667C26.2667 30.0002 26 29.7335 26 29.3335C26 28.9335 26.2667 28.6668 26.6667 28.6668H27.3333V28.0002C27.3333 27.6002 27.6 27.3335 28 27.3335C28.4 27.3335 28.6667 27.6002 28.6667 28.0002V29.3335C28.6667 29.7335 28.4 30.0002 28 30.0002Z" fill="#97542B"/>
<path d="M24.1334 30.0001H21.6C21.2 30.0001 20.9334 29.7334 20.9334 29.3334C20.9334 28.9334 21.2 28.6667 21.6 28.6667H24.1334C24.5334 28.6667 24.8 28.9334 24.8 29.3334C24.8 29.7334 24.5334 30.0001 24.1334 30.0001ZM19.1334 30.0001H16.6C16.2 30.0001 15.9334 29.7334 15.9334 29.3334C15.9334 28.9334 16.2 28.6667 16.6 28.6667H19.1334C19.5334 28.6667 19.8 28.9334 19.8 29.3334C19.8 29.7334 19.4667 30.0001 19.1334 30.0001ZM14.0667 30.0001H11.5334C11.1334 30.0001 10.8667 29.7334 10.8667 29.3334C10.8667 28.9334 11.1334 28.6667 11.5334 28.6667H14.0667C14.4667 28.6667 14.7334 28.9334 14.7334 29.3334C14.7334 29.7334 14.4667 30.0001 14.0667 30.0001ZM9.0667 30.0001H6.53337C6.13337 30.0001 5.8667 29.7334 5.8667 29.3334C5.8667 28.9334 6.13337 28.6667 6.53337 28.6667H9.0667C9.4667 28.6667 9.73337 28.9334 9.73337 29.3334C9.73337 29.7334 9.40003 30.0001 9.0667 30.0001Z" fill="#97542B"/>
<path d="M25.3334 24.0001H30.6668C31.4001 24.0001 32.0001 23.4001 32.0001 22.6667V20.0001C32.0001 19.2667 31.4001 18.6667 30.6668 18.6667H25.3334C23.8667 18.6667 22.6667 19.8667 22.6667 21.3334C22.6667 22.8001 23.8667 24.0001 25.3334 24.0001Z" fill="#C06F3D"/>
<path d="M25.3333 22.6667C26.0697 22.6667 26.6667 22.0697 26.6667 21.3333C26.6667 20.597 26.0697 20 25.3333 20C24.597 20 24 20.597 24 21.3333C24 22.0697 24.597 22.6667 25.3333 22.6667Z" fill="#BEC0D6"/>
</svg>
