<svg width="32" height="32" viewBox="0 0 32 32" fill="none" xmlns="http://www.w3.org/2000/svg">
<path d="M32 16C32 24.8366 24.8366 32 16 32C7.16344 32 0 24.8366 0 16C0 7.16344 7.16344 0 16 0C24.8366 0 32 7.16344 32 16Z" fill="#1DA1F2"/>
<path d="M23.5 11.4431C22.9481 11.6881 22.355 11.8531 21.7325 11.9275C22.3681 11.5469 22.8562 10.9438 23.0856 10.225C22.4912 10.5775 21.8325 10.8338 21.1312 10.9719C20.5706 10.3738 19.77 10 18.885 10C16.8981 10 15.4381 11.8537 15.8869 13.7781C13.33 13.65 11.0625 12.425 9.54437 10.5631C8.73812 11.9463 9.12625 13.7556 10.4963 14.6719C9.9925 14.6556 9.5175 14.5175 9.10312 14.2869C9.06937 15.7125 10.0912 17.0462 11.5712 17.3431C11.1381 17.4606 10.6638 17.4881 10.1813 17.3956C10.5725 18.6181 11.7088 19.5075 13.0563 19.5325C11.7625 20.5469 10.1325 21 8.5 20.8075C9.86187 21.6806 11.48 22.19 13.2175 22.19C18.9312 22.19 22.1594 17.3644 21.9644 13.0362C22.5656 12.6019 23.0875 12.06 23.5 11.4431Z" fill="white"/>
</svg>
