<svg width="32" height="32" viewBox="0 0 32 32" fill="none" xmlns="http://www.w3.org/2000/svg">
<path d="M8 22.6667H10.1333C11.3333 22.6667 12.2667 21.8667 12.6667 20.8001L14.6667 14.6667H9.33333L8 22.6667Z" fill="#BEC0D6"/>
<path d="M10.6667 18.6666H2.66667C1.2 18.6666 0 17.4666 0 15.9999V7.99992C0 6.53325 1.2 5.33325 2.66667 5.33325H10.6667V18.6666Z" fill="#BEC0D6"/>
<path d="M29.3334 2.26667V21.7333C29.3334 23.0667 28.2667 24 27.0667 24C26.8001 24 26.5334 24 26.4001 23.8667L16.0001 20.4L10.6667 18.6667V5.33333L16.0001 3.6L26.2667 0.133333C26.5334 0 26.8001 0 27.0667 0C28.2667 0 29.3334 1.06667 29.3334 2.26667Z" fill="white"/>
<path d="M30.7999 13.8666L29.3333 14.6666V9.33325L30.7999 10.1333C31.5999 10.3999 31.9999 11.1999 31.9999 11.9999C31.9999 12.7999 31.5999 13.5999 30.7999 13.8666Z" fill="#BEC0D6"/>
<path d="M10.6666 18.6667H3.99991L0.666572 29.6001C0.399906 30.8001 1.19991 32.0001 2.53324 32.0001H6.66657H7.46657C8.53324 32.0001 9.33324 31.2001 9.33324 30.1334C9.33324 29.6001 9.19991 29.2001 8.79991 28.8001L8.66657 28.6667C8.13324 28.1334 7.99991 27.4667 8.13324 26.8001L10.6666 18.6667Z" fill="white"/>
<path d="M16.0001 3.6001V20.4001L10.6667 18.6668V5.33343L16.0001 3.6001Z" fill="#FF3A3A"/>
</svg>
