<svg width="32" height="32" viewBox="0 0 32 32" fill="none" xmlns="http://www.w3.org/2000/svg">
<path d="M31.5 16C31.5 24.5604 24.5604 31.5 16 31.5C7.43959 31.5 0.5 24.5604 0.5 16C0.5 7.43959 7.43959 0.5 16 0.5C24.5604 0.5 31.5 7.43959 31.5 16Z" fill="white"/>
<path fill-rule="evenodd" clip-rule="evenodd" d="M10.5054 10.1464C10.2485 8.77081 11.304 7.5 12.7033 7.5C13.9381 7.5 14.9392 8.50105 14.9392 9.7359V12.4924C15.2481 12.4706 15.5619 12.4595 15.8797 12.4595C16.1851 12.4595 16.4868 12.4698 16.784 12.4899V9.7359C16.784 8.50105 17.785 7.5 19.0198 7.5C20.4192 7.5 21.4746 8.77081 21.2177 10.1464L20.6127 13.3865C22.6893 14.2931 24.2595 15.8678 24.2595 17.8465V19.0436C24.2595 20.6707 23.1831 22.0331 21.6781 22.9527C20.1615 23.8796 18.1097 24.4305 15.8797 24.4305C13.6498 24.4305 11.598 23.8796 10.0814 22.9527C8.57647 22.0331 7.5 20.6707 7.5 19.0436V17.8465C7.5 15.8783 9.0541 14.3096 11.1132 13.4012L10.5054 10.1464ZM19.8373 13.8122L20.5453 10.0208C20.7236 9.06608 19.9911 8.18407 19.0198 8.18407C18.1628 8.18407 17.468 8.87884 17.468 9.7359V13.2438C17.2435 13.215 17.0153 13.1922 16.784 13.1756C16.4874 13.1544 16.1857 13.1435 15.8797 13.1435C15.5613 13.1435 15.2474 13.1553 14.9392 13.1783C14.7078 13.1955 14.4797 13.219 14.2551 13.2485V9.7359C14.2551 8.87884 13.5603 8.18407 12.7033 8.18407C11.7321 8.18407 10.9995 9.06607 11.1778 10.0208L11.8882 13.8248C9.66743 14.6497 8.18406 16.1422 8.18406 17.8465V19.0436C8.18406 21.6409 11.6295 23.7465 15.8797 23.7465C20.13 23.7465 23.5755 21.6409 23.5755 19.0436V17.8465C23.5755 16.1335 22.0769 14.6345 19.8373 13.8122Z" fill="#633001"/>
<path d="M23.5753 19.0436C23.5753 21.641 20.1298 23.7465 15.8795 23.7465C11.6293 23.7465 8.18384 21.641 8.18384 19.0436V17.8464H23.5753V19.0436Z" fill="#FEDC90"/>
<path fill-rule="evenodd" clip-rule="evenodd" d="M11.1776 10.0206C10.9993 9.06585 11.7318 8.18384 12.7031 8.18384C13.5601 8.18384 14.2549 8.87862 14.2549 9.73568V13.2483C14.7786 13.1795 15.3222 13.1433 15.8795 13.1433C16.424 13.1433 16.9553 13.1778 17.4678 13.2436V9.73568C17.4678 8.87862 18.1626 8.18384 19.0196 8.18384C19.9909 8.18384 20.7234 9.06585 20.5451 10.0206L19.837 13.812C22.0767 14.6343 23.5753 16.1333 23.5753 17.8462C23.5753 20.4436 20.1298 22.5492 15.8795 22.5492C11.6293 22.5492 8.18384 20.4436 8.18384 17.8462C8.18384 16.142 9.6672 14.6495 11.888 13.8246L11.1776 10.0206Z" fill="#D1884F"/>
<path d="M13.7424 17.5045C13.7424 18.2129 13.3596 18.7872 12.8873 18.7872C12.4151 18.7872 12.0322 18.2129 12.0322 17.5045C12.0322 16.7962 12.4151 16.2219 12.8873 16.2219C13.3596 16.2219 13.7424 16.7962 13.7424 17.5045Z" fill="#633001"/>
<path d="M19.6423 17.5045C19.6423 18.2129 19.2594 18.7872 18.7872 18.7872C18.315 18.7872 17.9321 18.2129 17.9321 17.5045C17.9321 16.7962 18.315 16.2219 18.7872 16.2219C19.2594 16.2219 19.6423 16.7962 19.6423 17.5045Z" fill="#633001"/>
</svg>
