<svg width="32" height="32" viewBox="0 0 32 32" fill="none" xmlns="http://www.w3.org/2000/svg">
<path d="M24.6666 26.6667H7.33325V8.66667C7.33325 3.86667 11.1999 0 15.9999 0C20.7999 0 24.6666 3.86667 24.6666 8.66667V26.6667ZM11.3333 22.6667H20.6666V8.66667C20.6666 6.06667 18.5999 4 15.9999 4C13.3999 4 11.3333 6.06667 11.3333 8.66667V22.6667Z" fill="#BEC0D6"/>
<path d="M25.3333 14H6.66667C5.2 14 4 15.2 4 16.6667V29.3333C4 30.8 5.2 32 6.66667 32H25.3333C26.8 32 28 30.8 28 29.3333V16.6667C28 15.2 26.8 14 25.3333 14Z" fill="#73758D"/>
<path d="M20.0001 22.6667H12.0001C11.2667 22.6667 10.6667 23.2667 10.6667 24.0001V26.6667C10.6667 27.4001 11.2667 28.0001 12.0001 28.0001H20.0001C20.7334 28.0001 21.3334 27.4001 21.3334 26.6667V24.0001C21.3334 23.2667 20.7334 22.6667 20.0001 22.6667Z" fill="#FFB85F"/>
<rect x="13.1201" y="24.6399" width="5.76" height="1.28" rx="0.64" fill="#EBA246"/>
</svg>
