<svg width="32" height="32" viewBox="0 0 32 32" fill="none" xmlns="http://www.w3.org/2000/svg">
<g clip-path="url(#clip0_941_2838)">
<path d="M27.3236 16.0001C27.3236 19.1334 26.0543 22.0001 23.9833 24.0001C21.9123 26.0668 19.1065 27.3334 15.9666 27.3334C14.0292 27.3334 12.2255 26.8668 10.6221 26.0001C7.01463 24.0668 4.60962 20.3334 4.60962 15.9334C4.60962 12.8001 5.87893 9.93343 7.94991 7.93343C10.0209 5.86676 12.8267 4.6001 15.9666 4.6001C20.0418 4.6001 23.5825 6.73343 25.5867 9.93343C26.7224 11.7334 27.3236 13.8001 27.3236 16.0001Z" fill="white"/>
<path d="M19.7648 17.978C19.7648 18.7084 19.5123 19.325 19.0075 19.8278C18.5026 20.3306 17.8569 20.6674 17.0705 20.8381V21.7203C17.0705 21.967 16.9831 22.1709 16.8083 22.3322C16.6433 22.503 16.4345 22.5883 16.1821 22.5883C15.9394 22.5883 15.7355 22.503 15.5704 22.3322C15.4054 22.1709 15.3228 21.967 15.3228 21.7203V20.9235C14.7986 20.8761 14.318 20.767 13.881 20.5962C13.4538 20.4255 13.0364 20.1693 12.6286 19.8278C12.3664 19.6002 12.2354 19.3488 12.2354 19.0737C12.2354 18.8555 12.3179 18.6658 12.4829 18.5045C12.648 18.3337 12.847 18.2484 13.08 18.2484C13.2645 18.2484 13.4296 18.3053 13.5752 18.4191C13.8762 18.6563 14.1626 18.846 14.4345 18.9883C14.7063 19.1211 15.0024 19.2112 15.3228 19.2586V16.4839C13.3713 16.1329 12.3956 15.1795 12.3956 13.6238C12.3956 12.8364 12.6674 12.1914 13.2111 11.6886C13.7548 11.1763 14.4587 10.8633 15.3228 10.7494V10.2799C15.3228 10.0332 15.4054 9.82926 15.5704 9.668C15.7452 9.49724 15.9588 9.41187 16.2112 9.41187C16.454 9.41187 16.6578 9.49724 16.8229 9.668C16.988 9.82926 17.0705 10.0332 17.0705 10.2799V10.8064C17.8958 10.9486 18.5754 11.2427 19.1094 11.6886C19.391 11.9068 19.5317 12.1581 19.5317 12.4427C19.5317 12.6609 19.4492 12.8554 19.2842 13.0261C19.1191 13.1874 18.9249 13.268 18.7016 13.268C18.556 13.268 18.4249 13.2254 18.3084 13.14C18.0171 12.9028 17.6045 12.6989 17.0705 12.5281V15.1606C18.0123 15.3787 18.6968 15.7013 19.124 16.1282C19.5512 16.5456 19.7648 17.1622 19.7648 17.978ZM14.1141 13.5526C14.1141 13.8657 14.216 14.1218 14.4199 14.321C14.6238 14.5108 14.9248 14.6625 15.3228 14.7764V12.4143C14.9248 12.4902 14.6238 12.6277 14.4199 12.8269C14.216 13.0261 14.1141 13.268 14.1141 13.5526ZM17.0705 19.1306C17.3521 19.0167 17.5802 18.8697 17.755 18.6895C17.9297 18.4997 18.0171 18.2958 18.0171 18.0776C18.0171 17.812 17.9395 17.5843 17.7841 17.3946C17.6288 17.1954 17.3909 17.0294 17.0705 16.8966V19.1306Z" fill="#251976"/>
<path d="M10.2881 1.33341L9.75367 1.20007L5.67851 0.0667395C5.41129 7.28341e-05 5.21087 7.28341e-05 5.01046 0.133406C4.67643 0.26674 4.47601 0.600073 4.47601 0.933406C4.47601 1.13341 4.54281 1.33341 4.67643 1.53341L6.07935 3.40007C2.60545 6.13341 0.334046 10.2667 1.68636e-05 14.9334C-0.066789 15.5334 0.400852 16.0001 1.0021 16.0001C1.53655 16.0001 1.93739 15.6001 2.00419 15.0667C2.27142 11.0001 4.27559 7.40007 7.28185 5.00007C8.21714 4.26674 9.28603 3.60007 10.4217 3.13341C11.2234 2.73341 11.0898 1.60007 10.2881 1.33341Z" fill="#4B93FF"/>
<path d="M25.9208 28.6C29.3947 25.8667 31.6661 21.7333 32.0001 17.0667C32.0669 16.4667 31.5993 16 30.998 16C30.4636 16 30.0627 16.4 29.9959 16.9333C29.7287 21 27.7245 24.6 24.7183 27C23.783 27.7333 22.7141 28.4 21.5784 28.8667C20.7767 29.2 20.9103 30.4 21.712 30.6L22.2465 30.7333L26.3216 31.9333C26.522 32 26.7893 32 26.9897 31.8667C27.3237 31.6667 27.5241 31.3333 27.5241 31C27.5241 30.8 27.4573 30.6 27.3237 30.4667L25.9208 28.6Z" fill="#FF3A3A"/>
</g>
<defs>
<clipPath id="clip0_941_2838">
<rect width="32" height="32" fill="white"/>
</clipPath>
</defs>
</svg>
