<svg width="32" height="32" viewBox="0 0 32 32" fill="none" xmlns="http://www.w3.org/2000/svg">
<path d="M29.3333 8.00008H2.66667C1.2 8.00008 0 6.80008 0 5.33341C0 3.86675 1.2 2.66675 2.66667 2.66675H29.3333C30.8 2.66675 32 3.86675 32 5.33341C32 6.80008 30.8 8.00008 29.3333 8.00008Z" fill="#BEC0D6"/>
<path d="M5.33333 6.66667H29.3333C30.1333 6.66667 30.6667 6.13333 30.6667 5.33333C30.6667 4.53333 30.1333 4 29.3333 4H5.33333C4.53333 4 4 4.53333 4 5.33333C4 6.13333 4.53333 6.66667 5.33333 6.66667Z" fill="#73758D"/>
<path d="M5.33333 10.6667C8.27885 10.6667 10.6667 8.27885 10.6667 5.33333C10.6667 2.38781 8.27885 0 5.33333 0C2.38781 0 0 2.38781 0 5.33333C0 8.27885 2.38781 10.6667 5.33333 10.6667Z" fill="#DEE0F2"/>
<path d="M5.33341 8.00008C6.80617 8.00008 8.00008 6.80617 8.00008 5.33341C8.00008 3.86066 6.80617 2.66675 5.33341 2.66675C3.86066 2.66675 2.66675 3.86066 2.66675 5.33341C2.66675 6.80617 3.86066 8.00008 5.33341 8.00008Z" fill="#BEC0D6"/>
<path d="M29.3333 29.3333H2.66667C1.2 29.3333 0 28.1333 0 26.6667C0 25.2 1.2 24 2.66667 24H29.3333C30.8 24 32 25.2 32 26.6667C32 28.1333 30.8 29.3333 29.3333 29.3333Z" fill="#BEC0D6"/>
<path d="M2.66659 27.9999H29.3333C30.1333 27.9999 30.6666 27.4666 30.6666 26.6666C30.6666 25.8666 30.1333 25.3333 29.3333 25.3333H2.66659C1.86659 25.3333 1.33325 25.8666 1.33325 26.6666C1.33325 27.4666 1.86659 27.9999 2.66659 27.9999Z" fill="#73758D"/>
<path d="M14.6666 31.9999C17.6121 31.9999 19.9999 29.6121 19.9999 26.6666C19.9999 23.7211 17.6121 21.3333 14.6666 21.3333C11.7211 21.3333 9.33325 23.7211 9.33325 26.6666C9.33325 29.6121 11.7211 31.9999 14.6666 31.9999Z" fill="#DEE0F2"/>
<path d="M29.3333 18.6666H2.66667C1.2 18.6666 0 17.4666 0 15.9999C0 14.5333 1.2 13.3333 2.66667 13.3333H29.3333C30.8 13.3333 32 14.5333 32 15.9999C32 17.4666 30.8 18.6666 29.3333 18.6666Z" fill="#BEC0D6"/>
<path d="M2.66659 17.3334H26.6666C27.4666 17.3334 27.9999 16.8001 27.9999 16.0001C27.9999 15.2001 27.4666 14.6667 26.6666 14.6667H2.66659C1.86659 14.6667 1.33325 15.2001 1.33325 16.0001C1.33325 16.8001 1.86659 17.3334 2.66659 17.3334Z" fill="#73758D"/>
<path d="M26.6666 21.3334C29.6121 21.3334 31.9999 18.9456 31.9999 16.0001C31.9999 13.0546 29.6121 10.6667 26.6666 10.6667C23.7211 10.6667 21.3333 13.0546 21.3333 16.0001C21.3333 18.9456 23.7211 21.3334 26.6666 21.3334Z" fill="#DEE0F2"/>
<path d="M26.6667 18.6666C28.1394 18.6666 29.3333 17.4727 29.3333 15.9999C29.3333 14.5272 28.1394 13.3333 26.6667 13.3333C25.1939 13.3333 24 14.5272 24 15.9999C24 17.4727 25.1939 18.6666 26.6667 18.6666Z" fill="#BEC0D6"/>
<path d="M14.6667 29.3333C16.1394 29.3333 17.3333 28.1394 17.3333 26.6667C17.3333 25.1939 16.1394 24 14.6667 24C13.1939 24 12 25.1939 12 26.6667C12 28.1394 13.1939 29.3333 14.6667 29.3333Z" fill="#BEC0D6"/>
</svg>
