<svg width="32" height="32" viewBox="0 0 32 32" fill="none" xmlns="http://www.w3.org/2000/svg">
<g clip-path="url(#clip0_941_2738)">
<path d="M24 19.1999C24 12.1332 16.9333 3.99989 13.6 0.666553C12.6667 -0.266781 11.3333 -0.266781 10.4 0.666553C7.06667 3.99989 0 12.1332 0 19.1999C0 26.2666 5.33333 31.9999 12 31.9999C18.6667 31.9999 24 26.2666 24 19.1999Z" fill="#FF7C5F"/>
<path d="M20.3999 23.0666C20.3999 18.1333 15.4666 12.4 13.0666 10.1333C12.3999 9.46663 11.4666 9.46663 10.7999 10.1333C8.53322 12.5333 3.46655 18.1333 3.46655 23.0666C3.59989 28 7.33322 32 11.9999 32C16.6666 32 20.3999 28 20.3999 23.0666Z" fill="#FFB85F"/>
<path d="M16.8 26.9334C16.8 24.1334 14 20.9334 12.6666 19.4667C12.2666 19.0667 11.7333 19.0667 11.3333 19.4667C9.99995 20.8001 7.19995 24.0001 7.19995 26.9334C7.19995 29.7334 9.33328 32.0001 12 32.0001C14.6666 32.0001 16.8 29.7334 16.8 26.9334Z" fill="white"/>
<path d="M32 22.7999C32 17.7332 26.8 11.8666 24.5334 9.46655C23.8667 8.79989 22.8 8.79989 22.2667 9.46655C19.8667 11.8666 14.8 17.7332 14.8 22.7999C14.8 27.8666 18.6667 31.9999 23.4667 31.9999C28.2667 31.9999 32 27.8666 32 22.7999Z" fill="#F57255"/>
<path d="M29.3333 25.6C29.3333 22 25.7333 18 24.1333 16.2667C23.7333 15.7334 22.9333 15.7334 22.5333 16.2667C20.9333 18 17.3333 22.1334 17.3333 25.6C17.3333 29.2 19.9999 32 23.4666 32C26.9333 32 29.3333 29.0667 29.3333 25.6Z" fill="#FFB85F"/>
<path d="M26.8001 28.2667C26.8001 26.2667 24.8001 23.8667 23.7334 22.9334C23.4667 22.6667 23.0667 22.6667 22.8001 22.9334C21.8667 23.8667 19.7334 26.2667 19.7334 28.2667C19.7334 30.2667 21.3334 32.0001 23.2001 32.0001C25.0667 32.0001 26.8001 30.4001 26.8001 28.2667Z" fill="white"/>
</g>
<defs>
<clipPath id="clip0_941_2738">
<rect width="32" height="32" fill="white"/>
</clipPath>
</defs>
</svg>
