<svg width="32" height="32" viewBox="0 0 32 32" fill="none" xmlns="http://www.w3.org/2000/svg">
<path d="M32 16C32 24.8366 24.8366 32 16 32C7.16344 32 0 24.8366 0 16C0 7.16344 7.16344 0 16 0C24.8366 0 32 7.16344 32 16Z" fill="#25A1DF"/>
<path d="M6.70303 15.2422C11.4006 13.1959 14.5331 11.8469 16.1005 11.1951C20.5755 9.33416 21.5054 9.01089 22.1115 9.0001C22.2448 8.99787 22.5429 9.0309 22.7359 9.18753C22.899 9.31978 22.9438 9.49844 22.9653 9.62384C22.9867 9.74923 23.0135 10.0349 22.9922 10.2581C22.7497 12.8056 21.7004 18.9878 21.1666 21.8411C20.9407 23.0484 20.4959 23.4532 20.0653 23.4928C19.1295 23.5789 18.4189 22.8745 17.5126 22.2805C16.0943 21.351 15.2931 20.7724 13.9164 19.8654C12.3255 18.8171 13.3568 18.241 14.2635 17.2995C14.5008 17.0531 18.6239 13.3036 18.7037 12.9634C18.7137 12.9209 18.7229 12.7623 18.6287 12.6786C18.5345 12.5948 18.3954 12.6235 18.2951 12.6463C18.1528 12.6785 15.8871 14.1758 11.498 17.138C10.8549 17.5795 10.2724 17.7946 9.75049 17.7833C9.17513 17.7709 8.06837 17.4581 7.2456 17.1907C6.23645 16.8627 5.4344 16.6893 5.50424 16.1323C5.54062 15.8422 5.94022 15.5455 6.70303 15.2422Z" fill="white"/>
</svg>
