<svg width="32" height="32" viewBox="0 0 32 32" fill="none" xmlns="http://www.w3.org/2000/svg">
<path d="M16 32C24.8366 32 32 24.8366 32 16C32 7.16344 24.8366 0 16 0C7.16344 0 0 7.16344 0 16C0 24.8366 7.16344 32 16 32Z" fill="white"/>
<path d="M16 30C23.732 30 30 23.732 30 16C30 8.26801 23.732 2 16 2C8.26801 2 2 8.26801 2 16C2 23.732 8.26801 30 16 30Z" fill="#8771FF"/>
<path d="M6.66685 26.4001C5.73351 25.6001 4.93351 24.6001 4.26685 23.6001C4.46685 23.3334 4.66685 23.0667 4.86685 22.7334C6.06685 21.0667 6.80018 20.8667 7.26685 21.0001C7.33351 21.5334 7.40018 22.0001 7.40018 22.4001C7.53351 23.8667 7.20018 25.2001 6.66685 26.4001Z" fill="#2AB994"/>
<path d="M27.7333 23.6002C27.0666 24.6668 26.2666 25.6001 25.3333 26.4002C24.8 25.2001 24.4666 23.8002 24.6 22.3335C24.6666 21.9335 24.6666 21.4001 24.7333 20.9335C25.1333 20.8668 25.9333 21.0668 27.1333 22.6668C27.3333 23.0668 27.5333 23.3335 27.7333 23.6002Z" fill="#2AB994"/>
<path d="M25.3334 26.4C22.8668 28.6667 19.6001 30 16.0001 30C12.4001 30 9.13342 28.6667 6.66675 26.4C7.20008 25.2 7.53342 23.8 7.40008 22.3333C7.33342 22 7.33341 21.4667 7.26675 21C6.73341 15.8667 6.33341 7 16.0001 7C25.6668 7 25.2668 15.8667 24.7334 21C24.6668 21.4667 24.6668 22 24.6001 22.4C24.4668 23.8667 24.8001 25.2 25.3334 26.4Z" fill="#32DCB0"/>
<path d="M12.218 18.1304C13.3594 18.1304 14.2847 17.2051 14.2847 16.0637C14.2847 14.9223 13.3594 13.9971 12.218 13.9971C11.0766 13.9971 10.1514 14.9223 10.1514 16.0637C10.1514 17.2051 11.0766 18.1304 12.218 18.1304Z" fill="#251976"/>
<path d="M19.9512 18.1304C21.0926 18.1304 22.0179 17.2051 22.0179 16.0637C22.0179 14.9223 21.0926 13.9971 19.9512 13.9971C18.8098 13.9971 17.8845 14.9223 17.8845 16.0637C17.8845 17.2051 18.8098 18.1304 19.9512 18.1304Z" fill="#251976"/>
<path d="M13.5512 11.5971C12.6845 11.2637 10.8845 10.7971 9.48454 12.7304C9.35121 12.8637 9.41788 13.1304 9.55121 13.2637L9.81788 13.5304C9.95121 13.6637 10.2179 13.6637 10.3512 13.5304C10.6845 13.1304 11.4845 12.5971 12.9512 12.9304C13.0845 12.9971 13.2845 12.9304 13.3512 12.7971L13.6845 12.3304C13.8845 11.9971 13.7512 11.7304 13.5512 11.5971Z" fill="#251976"/>
<path d="M22.7511 12.7304C21.3511 10.7971 19.4844 11.2637 18.6844 11.5971C18.4177 11.6637 18.3511 11.9971 18.4844 12.1971L18.8177 12.6637C18.8844 12.7971 19.0844 12.8637 19.2177 12.7971C20.6844 12.4637 21.4844 13.0637 21.8177 13.3971C21.9511 13.5304 22.2177 13.5971 22.3511 13.3971L22.6177 13.1304C22.8177 13.1304 22.8177 12.9304 22.7511 12.7304Z" fill="#251976"/>
<path d="M15.9999 20.8C15.1333 20.8 14.3333 20.5334 13.7333 20.1334C13.4666 19.9334 13.3999 19.6 13.5999 19.3334C13.7999 19.0667 14.1333 19 14.3999 19.2C15.1999 19.8 16.7333 19.8 17.5333 19.2C17.7999 19 18.1333 19.0667 18.3333 19.3334C18.5333 19.6 18.4666 19.9334 18.1999 20.1334C17.6666 20.6 16.8666 20.8 15.9999 20.8Z" fill="#251976"/>
</svg>
