<svg width="32" height="32" viewBox="0 0 32 32" fill="none" xmlns="http://www.w3.org/2000/svg">
<g clip-path="url(#clip0_986_2918)">
<path d="M16.0001 31.9999C23.3639 31.9999 29.3334 26.0304 29.3334 18.6666C29.3334 11.3028 23.3639 5.33325 16.0001 5.33325C8.63628 5.33325 2.66675 11.3028 2.66675 18.6666C2.66675 26.0304 8.63628 31.9999 16.0001 31.9999Z" fill="#FFC6BA"/>
<path d="M29.3333 16H2.66667L0.133333 8.53333C0 8.13333 0 7.86667 0 7.46667C0 6.13333 0.8 5.06667 2 4.53333L11.0667 0.933333C12.6667 0.266667 14.2667 0 16 0C17.7333 0 19.3333 0.266667 20.9333 0.933333L30.1333 4.53333C31.2 5.06667 32 6.13333 32 7.46667C32 7.86667 32 8.13333 31.8667 8.53333L29.3333 16Z" fill="#4B93FF"/>
<path d="M0 15.7334C0 16.6667 0.666667 17.3334 1.6 17.3334H30.5333C31.3333 17.3334 32.1333 16.6667 32.1333 15.7334C32.1333 15.0667 31.7333 14.5334 31.0667 14.2667L23.8667 11.8667C21.3333 11.0667 18.6667 10.6667 16 10.6667C13.3333 10.6667 10.6667 11.0667 8.26667 11.8667L1.06667 14.2667C0.4 14.5334 0 15.0667 0 15.7334Z" fill="#5058B4"/>
<path d="M9.33341 24.0001C10.8062 24.0001 12.0001 22.8062 12.0001 21.3334C12.0001 19.8607 10.8062 18.6667 9.33341 18.6667C7.86066 18.6667 6.66675 19.8607 6.66675 21.3334C6.66675 22.8062 7.86066 24.0001 9.33341 24.0001Z" fill="#251976"/>
<path d="M22.6667 24.0001C24.1394 24.0001 25.3333 22.8062 25.3333 21.3334C25.3333 19.8607 24.1394 18.6667 22.6667 18.6667C21.1939 18.6667 20 19.8607 20 21.3334C20 22.8062 21.1939 24.0001 22.6667 24.0001Z" fill="#251976"/>
<path d="M1.33333 32C0.933333 32 0.666667 31.8667 0.4 31.6C-0.133333 31.0667 -0.133333 30.2667 0.4 29.7333L29.7333 0.4C30.2667 -0.133333 31.0667 -0.133333 31.6 0.4C32.1333 0.933333 32.1333 1.73333 31.6 2.26667L2.26667 31.6C2 31.8667 1.73333 32 1.33333 32Z" fill="#FF3A3A"/>
</g>
<defs>
<clipPath id="clip0_986_2918">
<rect width="32" height="32" fill="white"/>
</clipPath>
</defs>
</svg>
