<svg width="32" height="32" viewBox="0 0 32 32" fill="none" xmlns="http://www.w3.org/2000/svg">
<path d="M29.3333 32H2.66667C1.2 32 0 30.8 0 29.3333V2.66667C0 1.2 1.2 0 2.66667 0H29.3333C30.8 0 32 1.2 32 2.66667V29.3333C32 30.8 30.8 32 29.3333 32Z" fill="#8A7FD2"/>
<path d="M32 5.33333H0V2.66667C0 1.2 1.2 0 2.66667 0H29.3333C30.8 0 32 1.2 32 2.66667V5.33333Z" fill="#5058B4"/>
<path d="M22.6666 18.6666C22.6666 18.2666 22.6666 17.9999 22.5333 17.5999L24.6666 15.0666L23.3333 12.7999L20.1333 13.4666C19.6 13.0666 18.9333 12.6666 18.2666 12.3999L17.3333 9.33325H14.6666L13.6 12.3999C12.9333 12.6666 12.4 13.0666 11.7333 13.4666L8.53328 12.7999L7.19995 15.0666L9.33328 17.5999C9.33328 17.9999 9.33328 18.2666 9.33328 18.6666C9.33328 19.0666 9.33328 19.3333 9.46662 19.7333L7.33328 22.2666L8.66662 24.5333L11.8666 23.8666C12.4 24.2666 13.0666 24.6666 13.7333 24.9333L14.6666 27.9999H17.3333L18.4 24.9333C19.0666 24.6666 19.6 24.2666 20.2666 23.8666L23.4666 24.5333L24.8 22.2666L22.6666 19.7333C22.6666 19.3333 22.6666 19.0666 22.6666 18.6666ZM16 21.3333C14.5333 21.3333 13.3333 20.1333 13.3333 18.6666C13.3333 17.1999 14.5333 15.9999 16 15.9999C17.4666 15.9999 18.6666 17.1999 18.6666 18.6666C18.6666 20.1333 17.4666 21.3333 16 21.3333Z" fill="white"/>
</svg>
