<svg width="32" height="32" viewBox="0 0 32 32" fill="none" xmlns="http://www.w3.org/2000/svg">
<path d="M16 32C24.8366 32 32 24.8366 32 16C32 7.16344 24.8366 0 16 0C7.16344 0 0 7.16344 0 16C0 24.8366 7.16344 32 16 32Z" fill="#FFC57B"/>
<path d="M16 30C23.732 30 30 23.732 30 16C30 8.26801 23.732 2 16 2C8.26801 2 2 8.26801 2 16C2 23.732 8.26801 30 16 30Z" fill="#CC8833"/>
<path d="M6.66685 26.4001C5.73351 25.6001 4.93351 24.6001 4.26685 23.6001C4.46685 23.3334 4.66685 23.0667 4.86685 22.7334C6.06685 21.0667 6.80018 20.8667 7.26685 21.0001C7.33351 21.5334 7.40018 22.0001 7.40018 22.4001C7.53351 23.8667 7.20018 25.2001 6.66685 26.4001Z" fill="#EBA246"/>
<path d="M27.7333 23.6002C27.0666 24.6668 26.2666 25.6001 25.3333 26.4001C24.8 25.2001 24.4666 23.8001 24.6 22.3335C24.6666 21.9335 24.6666 21.4001 24.7333 20.9335C25.1333 20.8668 25.9333 21.0668 27.1333 22.6668C27.3333 23.0668 27.5333 23.3335 27.7333 23.6002Z" fill="#EBA246"/>
<path d="M25.3334 26.4C22.8668 28.6667 19.6001 30 16.0001 30C12.4001 30 9.13342 28.6667 6.66675 26.4C7.20008 25.2 7.53342 23.8 7.40008 22.3333C7.33342 22 7.33341 21.4667 7.26675 21C6.73341 15.8667 6.33341 7 16.0001 7C25.6668 7 25.2668 15.8667 24.7334 21C24.6668 21.4667 24.6668 22 24.6001 22.4C24.4668 23.8667 24.8001 25.2 25.3334 26.4Z" fill="#FFB85F"/>
<path d="M12.1336 17.9334C13.2749 17.9334 14.2002 17.0081 14.2002 15.8667C14.2002 14.7253 13.2749 13.8 12.1336 13.8C10.9922 13.8 10.0669 14.7253 10.0669 15.8667C10.0669 17.0081 10.9922 17.9334 12.1336 17.9334Z" fill="#CC8833"/>
<path d="M19.8667 17.9334C21.0081 17.9334 21.9334 17.0081 21.9334 15.8667C21.9334 14.7253 21.0081 13.8 19.8667 13.8C18.7253 13.8 17.8 14.7253 17.8 15.8667C17.8 17.0081 18.7253 17.9334 19.8667 17.9334Z" fill="#CC8833"/>
<path d="M13.4667 11.4C12.6001 11.0667 10.8001 10.6 9.40007 12.5334C9.26674 12.6667 9.3334 12.9334 9.46674 13.0667L9.7334 13.3334C9.86674 13.4667 10.1334 13.4667 10.2667 13.3334C10.6001 12.9334 11.4001 12.4 12.8667 12.7334C13.0001 12.8 13.2001 12.7334 13.2667 12.6L13.6001 12.1334C13.8001 11.8 13.6667 11.5334 13.4667 11.4Z" fill="#CC8833"/>
<path d="M22.6666 12.5334C21.2666 10.6 19.3999 11.0667 18.5999 11.4C18.3333 11.4667 18.2666 11.8 18.3999 12L18.7333 12.4667C18.7999 12.6 18.9999 12.6667 19.1333 12.6C20.5999 12.2667 21.3999 12.8667 21.7332 13.2C21.8666 13.3334 22.1333 13.4 22.2666 13.2L22.5333 12.9334C22.7333 12.9334 22.7333 12.7334 22.6666 12.5334Z" fill="#CC8833"/>
<path d="M15.9999 20.8C15.1333 20.8 14.3333 20.5334 13.7333 20.1334C13.4666 19.9334 13.3999 19.6 13.5999 19.3334C13.7999 19.0667 14.1333 19 14.3999 19.2C15.1999 19.8 16.7333 19.8 17.5333 19.2C17.7999 19 18.1333 19.0667 18.3333 19.3334C18.5333 19.6 18.4666 19.9334 18.1999 20.1334C17.6666 20.6 16.8666 20.8 15.9999 20.8Z" fill="#CC8833"/>
</svg>
