<svg width="32" height="32" viewBox="0 0 32 32" fill="none" xmlns="http://www.w3.org/2000/svg">
<g clip-path="url(#clip0_941_2774)">
<path d="M27.3236 16.0001C27.3236 19.1334 26.0543 22.0001 23.9833 24.0001C21.9123 26.0668 19.1065 27.3334 15.9666 27.3334C14.0292 27.3334 12.2255 26.8668 10.6221 26.0001C7.01463 24.0668 4.60962 20.3334 4.60962 15.9334C4.60962 12.8001 5.87893 9.93343 7.94991 7.93343C10.0209 5.86676 12.8267 4.6001 15.9666 4.6001C20.0418 4.6001 23.5825 6.73343 25.5867 9.93343C26.7224 11.7334 27.3236 13.8001 27.3236 16.0001Z" fill="#4B93FF"/>
<path d="M14.6305 14.3334C14.6305 15 14.3633 15.5334 13.9624 16C13.5616 16.4 12.9603 16.6667 12.2923 16.6667H10.6221C10.2881 16.6667 9.95409 17 9.95409 17.3334C9.95409 17.6667 9.62006 18 9.28603 18H8.952C8.41755 18 7.94991 18.4667 7.94991 19C7.94991 19.5334 8.41755 20 8.952 20C9.41964 20 9.82047 20.2 10.1545 20.4667C10.4217 20.8 10.6221 21.2 10.6221 21.6667V26C7.01463 24.0667 4.60962 20.3333 4.60962 15.9333C4.60962 12.8 5.87893 9.93335 7.94991 7.93335H11.9583C12.6931 7.93335 13.2944 8.53335 13.2944 9.26668C13.2944 9.66668 13.1608 10 12.8935 10.2C12.6931 10.4667 12.3591 10.6667 11.9583 10.6667C11.5574 10.6667 11.2902 11 11.2902 11.3333C11.2902 11.7333 11.6242 12 11.9583 12H12.2923C13.6284 12 14.6305 13.0667 14.6305 14.3334Z" fill="#9FC73C"/>
<path d="M27.3237 16C27.3237 19.1333 26.0544 22 23.9834 24H22.9813C22.4468 24 21.9792 23.5333 21.9792 23C21.9792 22.4667 21.5116 22 20.9771 22C20.3091 22 19.7746 21.7333 19.307 21.3333C18.9061 20.9333 18.6389 20.3333 18.6389 19.6667C18.6389 18.4 19.7078 17.3333 20.9771 17.3333H22.3132C22.8477 17.3333 23.3153 16.8667 23.3153 16.3333C23.3153 15.8 22.8477 15.3333 22.3132 15.3333H21.9792C21.6452 15.3333 21.3111 15.2 21.0439 14.9333C20.7767 14.6667 20.6431 14.3333 20.6431 14C20.6431 13.2667 21.2443 12.6667 21.9792 12.6667H22.6473C22.9813 12.6667 23.3153 12.3333 23.3153 12C23.3153 11.6 22.9813 11.3333 22.6473 11.3333C22.3132 11.3333 21.9792 11 21.9792 10.6667C21.9792 10.3333 22.3132 10 22.6473 10H25.5867C26.7224 11.7333 27.3237 13.8 27.3237 16Z" fill="#9FC73C"/>
<path d="M10.2881 1.33341L9.75367 1.20007L5.67851 0.0667395C5.41129 7.28362e-05 5.21087 7.28362e-05 5.01046 0.133406C4.67643 0.26674 4.47601 0.600073 4.47601 0.933406C4.47601 1.13341 4.54281 1.33341 4.67643 1.53341L6.07935 3.40007C2.60545 6.13341 0.334046 10.2667 1.68636e-05 14.9334C-0.066789 15.5334 0.400852 16.0001 1.0021 16.0001C1.53655 16.0001 1.93739 15.6001 2.00419 15.0667C2.27142 11.0001 4.27559 7.40007 7.28185 5.00007C8.21714 4.26674 9.28603 3.60007 10.4217 3.13341C11.2234 2.73341 11.0898 1.60007 10.2881 1.33341Z" fill="#4B93FF"/>
<path d="M25.9208 28.6C29.3947 25.8667 31.6661 21.7333 32.0001 17.0667C32.0669 16.4667 31.5993 16 30.998 16C30.4636 16 30.0627 16.4 29.9959 16.9333C29.7287 21 27.7245 24.6 24.7183 27C23.783 27.7333 22.7141 28.4 21.5784 28.8667C20.7767 29.2 20.9103 30.4 21.712 30.6L22.2465 30.7333L26.3216 31.9333C26.522 32 26.7893 32 26.9897 31.8667C27.3237 31.6667 27.5241 31.3333 27.5241 31C27.5241 30.8 27.4573 30.6 27.3237 30.4667L25.9208 28.6Z" fill="#FF3A3A"/>
</g>
<defs>
<clipPath id="clip0_941_2774">
<rect width="32" height="32" fill="white"/>
</clipPath>
</defs>
</svg>
