<svg width="32" height="32" viewBox="0 0 32 32" fill="none" xmlns="http://www.w3.org/2000/svg">
<path d="M32 16C32 24.8366 24.8366 32 16 32C7.16344 32 0 24.8366 0 16C0 7.16344 7.16344 0 16 0C24.8366 0 32 7.16344 32 16Z" fill="#CCB39C"/>
<path d="M24.4999 20.6215C24.4999 23.8045 19.4361 24.4193 15.7829 24.4193C12.1298 24.4193 7.5 23.7683 7.5 20.6938C7.5 19.2253 8.34999 18.4007 9.31573 18.0173C8.92871 17.5362 8.69361 16.943 8.69361 16.2088C8.69361 13.9807 10.0572 13.4092 11.3087 13.3586C12.7844 6.6382 19.7797 7.00351 19.7797 7.00351C19.7797 7.00351 18.4233 7.92585 18.4233 9.51732C18.4233 12.9896 22.9084 12.2301 22.9084 15.3045C22.9084 15.8615 22.5286 16.7477 22.2176 17.3771C23.299 17.9015 24.4999 18.8745 24.4999 20.6215Z" fill="#7C5E41"/>
<path fill-rule="evenodd" clip-rule="evenodd" d="M14.7988 24.403C18.3066 24.2879 22.5 23.518 22.5 20.6215C22.5 18.8745 21.2991 17.9015 20.2176 17.3771C20.5287 16.7477 20.9085 15.8615 20.9085 15.3045C20.9085 13.814 19.8544 13.2247 18.7682 12.6174C17.6139 11.9719 16.4234 11.3063 16.4234 9.51732C16.4234 8.39935 17.0927 7.61159 17.491 7.24179C18.7973 6.95221 19.7798 7.00351 19.7798 7.00351C19.7798 7.00351 18.4234 7.92585 18.4234 9.51732C18.4234 11.3063 19.6139 11.9719 20.7682 12.6174C21.8544 13.2247 22.9085 13.814 22.9085 15.3045C22.9085 15.8615 22.5287 16.7477 22.2176 17.3771C23.2991 17.9015 24.5 18.8745 24.5 20.6215C24.5 23.8045 19.4362 24.4193 15.783 24.4193C15.4612 24.4193 15.1319 24.4143 14.7988 24.403Z" fill="#6C5136"/>
<path fill-rule="evenodd" clip-rule="evenodd" d="M16.7987 24.403C13.3501 24.2859 9.5 23.4975 9.5 20.6938C9.5 19.2253 10.35 18.4007 11.3157 18.0173C10.9287 17.5362 10.6936 16.943 10.6936 16.2088C10.6936 13.9807 12.0572 13.4092 13.3087 13.3586C14.2314 9.15679 17.3117 7.7249 19.4909 7.24178C19.6596 7.08516 19.7797 7.00351 19.7797 7.00351C19.7797 7.00351 12.7844 6.6382 11.3087 13.3586C10.0572 13.4092 8.69361 13.9807 8.69361 16.2088C8.69361 16.943 8.92871 17.5362 9.31573 18.0173C8.34999 18.4007 7.5 19.2253 7.5 20.6938C7.5 23.7683 12.1298 24.4193 15.7829 24.4193C16.1117 24.4193 16.4519 24.4144 16.7987 24.403Z" fill="#8D7053"/>
<path d="M14.3508 20.1006C14.3508 20.1006 16.2172 21.1712 17.7725 20.1006" stroke="#0E1829" stroke-width="2" stroke-miterlimit="10" stroke-linecap="round" stroke-linejoin="round"/>
<path d="M14.4807 17.8003C14.8802 17.8003 15.2041 17.4764 15.2041 17.0769C15.2041 16.6774 14.8802 16.3535 14.4807 16.3535C14.0812 16.3535 13.7573 16.6774 13.7573 17.0769C13.7573 17.4764 14.0812 17.8003 14.4807 17.8003Z" fill="#0E1829"/>
<path d="M17.8811 17.8003C18.2806 17.8003 18.6045 17.4764 18.6045 17.0769C18.6045 16.6774 18.2806 16.3535 17.8811 16.3535C17.4816 16.3535 17.1577 16.6774 17.1577 17.0769C17.1577 17.4764 17.4816 17.8003 17.8811 17.8003Z" fill="#0E1829"/>
<path d="M11.3086 13.3586C12.7843 6.6382 19.7796 7.00351 19.7796 7.00351C19.7796 7.00351 18.4232 7.92585 18.4232 9.51732C18.4232 12.9896 22.9083 12.2301 22.9083 15.3045C22.9083 15.8615 22.5285 16.7477 22.2174 17.3771" stroke="#0E1829" stroke-width="2" stroke-miterlimit="10" stroke-linecap="round" stroke-linejoin="round"/>
<path d="M20.5212 16.8237C20.5212 16.8237 24.4999 17.4386 24.4999 20.6216C24.4999 23.8045 19.4361 24.4194 15.7829 24.4194C12.1298 24.4194 7.5 23.7684 7.5 20.6939C7.5 17.6195 11.2255 17.3663 11.9489 18.0897" stroke="#0E1829" stroke-width="2" stroke-miterlimit="10" stroke-linecap="round" stroke-linejoin="round"/>
<path d="M9.31548 18.0174C8.92846 17.5363 8.69336 16.9432 8.69336 16.2089C8.69336 13.9808 10.057 13.4094 11.3084 13.3587C12.3718 13.3153 13.3593 13.6408 13.3593 13.6408" stroke="#0E1829" stroke-width="2" stroke-miterlimit="10" stroke-linecap="round" stroke-linejoin="round"/>
</svg>
