<svg width="32" height="32" viewBox="0 0 32 32" fill="none" xmlns="http://www.w3.org/2000/svg">
<path d="M29.3333 32H2.66667C1.2 32 0 30.8 0 29.3333V2.66667C0 1.2 1.2 0 2.66667 0H29.3333C30.8 0 32 1.2 32 2.66667V29.3333C32 30.8 30.8 32 29.3333 32Z" fill="#BEC0D6"/>
<rect x="3.76465" y="8.94116" width="7.52941" height="1.88235" rx="0.941176" fill="white"/>
<rect x="3.76465" y="12.7058" width="5.17647" height="1.88235" rx="0.941176" fill="white"/>
<rect x="3.76465" y="16.4707" width="7.52941" height="1.88235" rx="0.941176" fill="white"/>
<rect x="3.76465" y="20.2354" width="5.17647" height="1.88235" rx="0.941176" fill="white"/>
<rect x="3.76465" y="24" width="3.29412" height="1.88235" rx="0.941176" fill="white"/>
<path d="M32 5.17647H0V2.58824C0 1.16471 1.2 0 2.66667 0H29.3333C30.8 0 32 1.16471 32 2.58824V5.17647Z" fill="#4B93FF"/>
<path d="M15.0588 10.9412C15.0588 9.83659 15.9543 8.94116 17.0588 8.94116H26.2353C27.3399 8.94116 28.2353 9.83659 28.2353 10.9412V21.5294C28.2353 22.634 27.3399 23.5294 26.2353 23.5294H17.0588C15.9543 23.5294 15.0588 22.634 15.0588 21.5294V10.9412Z" fill="white"/>
<rect x="16.9412" y="10.8235" width="6.58823" height="1.88235" rx="0.941176" fill="#8A7FD2"/>
<path d="M15.0588 27.4119C15.0588 26.3073 15.9543 25.4119 17.0588 25.4119H26.2353C27.3399 25.4119 28.2353 26.3073 28.2353 27.4119V32.0001H15.0588V27.4119Z" fill="white"/>
<rect x="16.9412" y="27.2942" width="8.47059" height="1.88235" rx="0.941176" fill="#8A7FD2"/>
</svg>
