<svg width="32" height="32" viewBox="0 0 32 32" fill="none" xmlns="http://www.w3.org/2000/svg">
<path d="M22.6666 0C17.7999 0 13.7999 3.8 13.5999 8.66667L13.3333 13.5333C13.3333 13.8 13.3333 14.1333 13.3999 14.4C13.7333 15.7333 14.9333 16.6667 16.2666 16.6667H28.9999C30.3332 16.6667 31.5332 15.7333 31.8666 14.4C31.9332 14.1333 31.9333 13.8 31.9333 13.5333L31.7332 8.66667C31.5332 3.8 27.5332 0 22.6666 0Z" fill="#5058B4"/>
<path d="M17.9999 32H27.3333C28.7999 32 29.9999 30.8 29.9999 29.3333V25.3333C29.9999 24.4667 29.8666 23.6 29.6666 22.7333L29.2666 21.2C28.5333 18.1333 25.7999 16 22.6666 16C19.5333 16 16.7999 18.1333 16.0666 21.2L15.6666 22.7333C15.4666 23.6 15.3333 24.4667 15.3333 25.3333V29.3333C15.3333 30.8 16.5333 32 17.9999 32Z" fill="white"/>
<path d="M30.6665 10.6668C30.6665 15.0668 27.0665 18.6668 22.6665 18.6668C18.2665 18.6668 14.6665 15.0668 14.6665 10.6668C14.6665 8.6668 15.3998 6.8668 16.5998 5.4668C17.7998 6.93346 20.7998 8.00013 24.3332 8.00013C26.3998 8.00013 28.3332 7.6668 29.7998 7.00013C30.3332 8.13346 30.6665 9.33346 30.6665 10.6668Z" fill="#DE9D8E"/>
<path d="M18.6665 12.6667C19.7711 12.6667 20.6665 11.7713 20.6665 10.6667C20.6665 9.56218 19.7711 8.66675 18.6665 8.66675C17.5619 8.66675 16.6665 9.56218 16.6665 10.6667C16.6665 11.7713 17.5619 12.6667 18.6665 12.6667Z" fill="#251976"/>
<path d="M26.6665 12.6667C27.7711 12.6667 28.6665 11.7713 28.6665 10.6667C28.6665 9.56218 27.7711 8.66675 26.6665 8.66675C25.5619 8.66675 24.6665 9.56218 24.6665 10.6667C24.6665 11.7713 25.5619 12.6667 26.6665 12.6667Z" fill="#251976"/>
<path d="M4.66667 31.9999H14C15.4667 31.9999 16.6667 30.7999 16.6667 29.3333V22.6666C16.6667 21.7999 16.5333 20.9333 16.3333 20.0666L15.9333 18.5333C15.2 15.4666 12.4667 13.3333 9.33333 13.3333C6.2 13.3333 3.46667 15.4666 2.73333 18.5333L2.33333 20.0666C2.13333 20.9333 2 21.7999 2 22.6666V29.3333C2 30.7999 3.2 31.9999 4.66667 31.9999Z" fill="#32DCB0"/>
<path d="M9.33325 16C13.7515 16 17.3333 12.4183 17.3333 8C17.3333 3.58172 13.7515 0 9.33325 0C4.91497 0 1.33325 3.58172 1.33325 8C1.33325 12.4183 4.91497 16 9.33325 16Z" fill="#FFC6BA"/>
<path d="M5.33325 10C6.43782 10 7.33325 9.10457 7.33325 8C7.33325 6.89543 6.43782 6 5.33325 6C4.22868 6 3.33325 6.89543 3.33325 8C3.33325 9.10457 4.22868 10 5.33325 10Z" fill="#251976"/>
<path d="M13.3333 10C14.4378 10 15.3333 9.10457 15.3333 8C15.3333 6.89543 14.4378 6 13.3333 6C12.2287 6 11.3333 6.89543 11.3333 8C11.3333 9.10457 12.2287 10 13.3333 10Z" fill="#251976"/>
</svg>
